SplineFontDB: 3.2
FontName: SingScript.sg_oas
FullName: SingScript.sg "oas" module
FamilyName: SingScript.sg
Weight: Regular
Copyright: Copyright (c) 2025, 05524F.sg (Singapore)
Version: v2
ItalicAngle: 0
UnderlinePosition: -100
UnderlineWidth: 67
Ascent: 600
Descent: 300
InvalidEm: 0
sfntRevision: 0x00010000
LayerCount: 2
Layer: 0 0 "Back" 1
Layer: 1 0 "Fore" 0
XUID: [1021 768 647112374 32286]
StyleMap: 0x0040
FSType: 0
OS2Version: 4
OS2_WeightWidthSlopeOnly: 0
OS2_UseTypoMetrics: 1
CreationTime: 1740441635
ModificationTime: 1753878400
PfmFamily: 65
TTFWeight: 400
TTFWidth: 5
LineGap: 81
VLineGap: 0
Panose: 3 0 5 3 0 0 0 0 0 0
OS2TypoAscent: 600
OS2TypoAOffset: 0
OS2TypoDescent: -300
OS2TypoDOffset: 0
OS2TypoLinegap: 81
OS2WinAscent: 590
OS2WinAOffset: 0
OS2WinDescent: 233
OS2WinDOffset: 0
HheadAscent: 590
HheadAOffset: 0
HheadDescent: -233
HheadDOffset: 0
OS2SubXSize: 585
OS2SubYSize: 630
OS2SubXOff: 0
OS2SubYOff: 126
OS2SupXSize: 585
OS2SupYSize: 630
OS2SupXOff: 0
OS2SupYOff: 432
OS2StrikeYSize: 44
OS2StrikeYPos: 232
OS2CapHeight: 467
OS2XHeight: 300
OS2Vendor: '5524'
OS2CodePages: 00000001.00000000
OS2UnicodeRanges: 80000003.10000000.00000000.00000000
MarkAttachClasses: 1
DEI: 91125
LangName: 1033 "" "" "" "" "" "Version v2"
Encoding: Custom
UnicodeInterp: none
NameList: AGL For New Fonts
DisplaySize: -48
AntiAlias: 1
FitToEm: 0
WidthSeparation: 50
WinInfo: 0 27 3
BeginPrivate: 6
BlueValues 21 [0 0 300 300 467 467]
OtherBlues 11 [-233 -233]
StdHW 4 [67]
StdVW 4 [67]
StemSnapH 33 [52 59 63 67 73 78 86 93 159 167]
StemSnapV 4 [67]
EndPrivate
Grid
0 -200 m 24
 351 -200 549 -200 900 -200 c 1048
0 -233 m 24
 351 -233 549 -233 900 -233 c 1048
250 211 m 24
 289 211 311 211 350 211 c 1048
250 100 m 24
 289 100 311 100 350 100 c 1048
250 -100 m 24
 289 -100 311 -100 350 -100 c 1048
250 -255 m 24
 289 -255 311 -255 350 -255 c 1048
100 511 m 24
 139 511 161 511 200 511 c 1048
100 400 m 24
 139 400 161 400 200 400 c 1048
100 200 m 24
 139 200 161 200 200 200 c 1048

StartChar: uni24EA
Encoding: 0 9450 0
Width: 817
Flags: W
HStem: -234 68<301.269 514.654> -83 67<359.042 426.488> 317 67<370.095 460.248> 466 68<301.646 514.654>
VStem: 25 67<43.2302 256.393> 264 67<13.3615 262.375> 486 67<88.037 290.068> 725 67<43.407 256.593>
LayerCount: 2
Fore
SplineSet
553 209 m 0
 553 49 481 -83 396 -83 c 0
 334 -83 276 -25 268 45 c 0
 265 63 264 86 264 122 c 0
 264 247 293 330 350 366 c 0
 368 378 390 384 414 384 c 0
 504 384 553 323 553 209 c 0
408 317 m 2
 359 317 331 247 331 122 c 0
 331 93 332 70 334 53 c 0
 338 19 370 -16 396 -16 c 0
 438 -16 486 103 486 209 c 0
 486 281 461 317 414 317 c 2
 408 317 l 2
25 150 m 0
 25 361 197 534 408 534 c 0
 619 534 792 361 792 150 c 0
 792 -61 619 -234 408 -234 c 0
 196 -234 25 -62 25 150 c 0
92 150 m 0
 92 -24 234 -166 408 -166 c 0
 582 -166 725 -24 725 150 c 0
 725 324 582 466 408 466 c 0
 235 466 92 323 92 150 c 0
EndSplineSet
Validated: 1
EndChar

StartChar: uni2460
Encoding: 1 9312 1
Width: 817
Flags: W
HStem: -234 68<301.269 514.654> 466 68<301.646 514.654>
VStem: 25 67<43.2302 256.393> 372 66<-79.5146 146.517> 374 67<-47.6316 163 163.001 166.999 167 377.849> 725 67<43.407 256.593>
LayerCount: 2
Fore
SplineSet
446 351 m 0xec
 446 340 445 298 444 257 c 0
 443 216 441 174 441 163 c 2
 441 149 l 2xec
 439 96 439 45 438 -50 c 0
 438 -68 422 -83 404 -83 c 0
 386 -83 372 -67 372 -49 c 0xf4
 372 -20 372 21 374 137 c 2
 374 163 l 2
 374 163 375 164 375 165 c 0
 375 166 376 167 376 167 c 0
 377 210 377 210 380 351 c 0
 380 369 394 384 412 384 c 0
 430 384 446 369 446 351 c 0xec
25 150 m 0
 25 361 197 534 408 534 c 0
 619 534 792 361 792 150 c 0
 792 -61 619 -234 408 -234 c 0
 196 -234 25 -62 25 150 c 0
92 150 m 0
 92 -24 234 -166 408 -166 c 0
 582 -166 725 -24 725 150 c 0
 725 324 582 466 408 466 c 0
 235 466 92 323 92 150 c 0
EndSplineSet
Validated: 1
EndChar

StartChar: uni2461
Encoding: 2 9313 2
Width: 817
Flags: W
HStem: -234 68<301.269 514.654> -83 67<362.535 536.829> 466 68<301.646 514.654>
VStem: 25 67<43.2302 256.393> 725 67<43.407 256.593>
LayerCount: 2
Fore
SplineSet
435 317 m 1
 398 312 362 289 334 272 c 0
 315 260 301 251 292 251 c 0
 274 251 258 267 258 285 c 0
 258 296 264 306 273 312 c 0
 338 358 399 384 442 384 c 0
 479 384 504 363 504 331 c 0
 504 304 495 243 487 217 c 0
 476 177 471 168 418 80 c 0
 401 51 390 34 383 22 c 0
 372 4 369 -2 362 -15 c 1
 367 -16 367 -16 386 -16 c 0
 410 -16 453 -13 521 -6 c 0
 525 -6 525 -6 526 -5 c 0
 544 -5 559 -20 559 -38 c 0
 559 -55 546 -70 529 -72 c 0
 490 -77 406 -83 386 -83 c 0
 320 -83 288 -65 288 -28 c 0
 288 -20 290 -11 293 -5 c 0
 328 58 345 87 371 132 c 0
 419 214 427 236 435 317 c 1
25 150 m 0
 25 361 197 534 408 534 c 0
 619 534 792 361 792 150 c 0
 792 -61 619 -234 408 -234 c 0
 196 -234 25 -62 25 150 c 0
92 150 m 0
 92 -24 234 -166 408 -166 c 0
 582 -166 725 -24 725 150 c 0
 725 324 582 466 408 466 c 0
 235 466 92 323 92 150 c 0
EndSplineSet
Validated: 1
EndChar

StartChar: uni2462
Encoding: 3 9314 3
Width: 817
Flags: W
HStem: -234 68<301.269 514.654> -77 62<321.335 351 351 400.394> 313 71<284.695 466.021> 466 68<301.646 514.654>
VStem: 25 67<43.2302 256.393> 446 67<45 81.8566> 725 67<43.407 256.593>
LayerCount: 2
Fore
SplineSet
538 310 m 0
 538 273 503 244 472 218 c 0
 452 201 433 185 427 170 c 1
 429 168 430 168 430 167 c 0
 431 166 431 166 436 162 c 0
 438 160 442 156 448 151 c 0
 493 112 513 79 513 46 c 0
 513 18 488 -17 451 -41 c 0
 427 -55 408 -62 352 -76 c 0
 351 -76 351 -76 351 -77 c 1
 350 -77 l 2
 344 -80 328 -83 321 -83 c 0
 303 -83 287 -67 287 -49 c 0
 287 -30 297 -20 323 -15 c 0
 324 -15 345 -10 358 -7 c 0
 425 9 435 15 445 44 c 1
 446 45 l 1
 446 46 l 2
 446 66 424 86 402 106 c 0
 380 126 359 146 359 166 c 0
 359 211 399 244 431 270 c 0
 448 284 462 295 469 307 c 1
 453 313 425 317 393 317 c 0
 362 317 337 316 315 313 c 2
 312 313 l 2
 294 313 279 328 279 346 c 0
 279 363 292 378 309 380 c 0
 331 383 355 384 393 384 c 0
 489 384 538 359 538 310 c 0
25 150 m 0
 25 361 197 534 408 534 c 0
 619 534 792 361 792 150 c 0
 792 -61 619 -234 408 -234 c 0
 196 -234 25 -62 25 150 c 0
92 150 m 0
 92 -24 234 -166 408 -166 c 0
 582 -166 725 -24 725 150 c 0
 725 324 582 466 408 466 c 0
 235 466 92 323 92 150 c 0
EndSplineSet
Validated: 1
EndChar

StartChar: uni2463
Encoding: 4 9315 4
Width: 817
Flags: W
HStem: -234 68<301.269 514.654> 84 68<323.784 372.252> 466 68<301.646 514.654>
VStem: 25 67<43.2302 256.393> 254 67<152.331 362.066> 264 67<204.831 380.515> 363 67<-79.5146 84.4991> 725 67<43.407 256.593>
LayerCount: 2
Fore
SplineSet
331 350 m 0xf7
 331 349 328 313 326 277 c 0
 324 241 321 205 321 204 c 0
 321 175 323 160 328 152 c 1
 330 152 l 2
 333 151 333 151 340 151 c 0
 350 151 363 153 379 157 c 0
 380 159 380 160 380 165 c 0
 391 288 391 298 394 353 c 0
 395 371 409 384 427 384 c 0
 445 384 461 368 461 350 c 0
 461 348 461 348 448 181 c 1
 478 194 494 203 504 209 c 0
 515 215 520 218 530 218 c 0
 548 218 563 203 563 185 c 0
 563 173 557 162 547 156 c 0
 517 139 481 122 442 107 c 0
 441 106 435 20 430 -46 c 2
 430 -52 l 2
 429 -69 415 -83 397 -83 c 0
 379 -83 363 -67 363 -49 c 0
 363 -42 369 34 373 87 c 1
 357 85 344 84 340 84 c 0
 279 84 254 119 254 204 c 0xfb
 254 222 254 222 264 352 c 0
 265 370 279 384 297 384 c 0
 315 384 331 368 331 350 c 0xf7
25 150 m 0
 25 361 197 534 408 534 c 0
 619 534 792 361 792 150 c 0
 792 -61 619 -234 408 -234 c 0
 196 -234 25 -62 25 150 c 0
92 150 m 0
 92 -24 234 -166 408 -166 c 0
 582 -166 725 -24 725 150 c 0
 725 324 582 466 408 466 c 0
 235 466 92 323 92 150 c 0
EndSplineSet
Validated: 1
EndChar

StartChar: uni2464
Encoding: 5 9316 5
Width: 817
Flags: W
HStem: -234 68<301.269 514.654> -92 67<337.194 454.959> 321 66<350.38 546.187> 466 68<301.646 514.654>
VStem: 25 67<43.2302 256.393> 278 67<205.029 317.905> 474 67<-5.09375 82.2683> 725 67<43.407 256.593>
LayerCount: 2
Fore
SplineSet
394 387 m 2
 402 387 l 2
 427 387 444 386 502 383 c 1
 510 383 l 2
 512 383 513 382 515 382 c 0
 517 382 518 382 520 382 c 0
 538 381 552 367 552 349 c 0
 552 331 536 315 518 315 c 2
 514 315 l 1
 457 319 416 321 394 321 c 0
 373 321 358 320 350 318 c 1
 346 293 345 281 345 270 c 0
 345 213 357 199 434 167 c 0
 517 133 541 107 541 56 c 0
 541 -34 487 -92 404 -92 c 0
 334 -92 266 -54 266 -16 c 0
 266 2 282 18 300 18 c 0
 313 18 325 10 330 -1 c 1
 348 -15 378 -25 404 -25 c 0
 450 -25 473 1 474 54 c 2
 474 56 l 2
 474 78 448 88 414 101 c 0
 379 114 337 131 308 166 c 0
 287 190 278 224 278 270 c 0
 278 299 284 339 292 356 c 0
 303 379 329 387 394 387 c 2
25 150 m 0
 25 361 197 534 408 534 c 0
 619 534 792 361 792 150 c 0
 792 -61 619 -234 408 -234 c 0
 196 -234 25 -62 25 150 c 0
92 150 m 0
 92 -24 234 -166 408 -166 c 0
 582 -166 725 -24 725 150 c 0
 725 324 582 466 408 466 c 0
 235 466 92 323 92 150 c 0
EndSplineSet
Validated: 1
EndChar

StartChar: uni2465
Encoding: 6 9317 6
Width: 817
Flags: W
HStem: -234 68<301.269 514.654> -83 67<369.898 445.707> 466 68<301.646 514.654>
VStem: 25 67<43.2302 256.393> 432 64<330.551 380.374> 455 67<-5.74323 81.7815> 725 67<43.407 256.593>
LayerCount: 2
Fore
SplineSet
496 350 m 0xfa
 496 349 l 0xfa
 496 347 496 347 492 338 c 0
 491 336 490 334 489 332 c 0
 474 303 451 250 419 176 c 1
 477 157 522 92 522 29 c 0xf6
 522 -34 470 -83 404 -83 c 0
 348 -83 295 -33 295 21 c 0
 295 57 343 177 432 365 c 0
 437 376 449 384 462 384 c 0
 480 384 496 368 496 350 c 0xfa
404 -16 m 0
 433 -16 455 3 455 29 c 0xf6
 455 64 424 107 393 114 c 1
 375 72 365 41 362 22 c 1
 368 -3 383 -16 404 -16 c 0
25 150 m 0
 25 361 197 534 408 534 c 0
 619 534 792 361 792 150 c 0
 792 -61 619 -234 408 -234 c 0
 196 -234 25 -62 25 150 c 0
92 150 m 0
 92 -24 234 -166 408 -166 c 0
 582 -166 725 -24 725 150 c 0
 725 324 582 466 408 466 c 0
 235 466 92 323 92 150 c 0
EndSplineSet
Validated: 1
EndChar

StartChar: uni2466
Encoding: 7 9318 7
Width: 817
Flags: W
HStem: -234 68<301.269 514.654> 298 86<314.14 463.512> 466 68<301.646 514.654>
VStem: 25 67<43.2302 256.393> 416 67<-79.4661 67.6118> 466 68<151.892 304 305 317> 725 67<43.407 256.593>
LayerCount: 2
Fore
SplineSet
466 317 m 1xf6
 413 313 355 304 330 300 c 0
 322 299 318 298 317 298 c 0
 299 298 283 314 283 332 c 0
 283 349 295 362 311 365 c 0
 378 376 444 384 479 384 c 0
 512 384 531 372 532 349 c 2
 532 343 l 2
 532 340 532 337 532 333 c 0
 532 329 533 326 533 323 c 0
 533 320 534 317 534 314 c 0
 534 311 534 307 534 304 c 0xf6
 534 219 520 152 506 86 c 0
 497 41 488 -3 483 -53 c 0
 481 -70 467 -83 450 -83 c 0
 432 -83 416 -67 416 -49 c 0xfa
 416 -2 429 63 442 128 c 0
 455 193 467 257 467 304 c 1
 466 305 l 1
 466 317 l 1xf6
25 150 m 0
 25 361 197 534 408 534 c 0
 619 534 792 361 792 150 c 0
 792 -61 619 -234 408 -234 c 0
 196 -234 25 -62 25 150 c 0
92 150 m 0
 92 -24 234 -166 408 -166 c 0
 582 -166 725 -24 725 150 c 0
 725 324 582 466 408 466 c 0
 235 466 92 323 92 150 c 0
EndSplineSet
Validated: 1
EndChar

StartChar: uni2467
Encoding: 8 9319 8
Width: 817
Flags: W
HStem: -234 68<301.269 514.654> -83 67<382.845 456.012> 317 67<370.44 432> 466 68<301.646 514.654>
VStem: 25 67<43.2302 256.393> 293 67<6.80273 71.1901 206.653 303.034> 457 67<-15.6068 50.3859> 725 67<43.407 256.593>
LayerCount: 2
Fore
SplineSet
431 317 m 2
 408 317 370 302 364 291 c 0
 361 284 360 275 360 263 c 0
 360 242 367 223 381 205 c 1
 415 258 429 289 432 317 c 1
 431 317 l 2
392 98 m 1
 392 93 385 81 378 69 c 0
 371 57 364 45 364 40 c 2
 364 36 l 1
 369 7 399 -16 433 -16 c 0
 450 -16 457 -12 457 -2 c 0
 457 30 451 40 394 97 c 0
 393 97 393 97 392 98 c 1
433 -83 m 0
 359 -83 297 -27 297 40 c 0
 297 65 304 81 343 146 c 1
 309 184 293 221 293 263 c 0
 293 278 295 293 299 308 c 0
 310 350 370 384 431 384 c 0
 473 384 500 362 500 328 c 0
 500 280 480 233 429 155 c 1
 441 143 l 1
 505 85 524 52 524 -2 c 0
 524 -51 488 -83 433 -83 c 0
25 150 m 0
 25 361 197 534 408 534 c 0
 619 534 792 361 792 150 c 0
 792 -61 619 -234 408 -234 c 0
 196 -234 25 -62 25 150 c 0
92 150 m 0
 92 -24 234 -166 408 -166 c 0
 582 -166 725 -24 725 150 c 0
 725 324 582 466 408 466 c 0
 235 466 92 323 92 150 c 0
EndSplineSet
Validated: 1
EndChar

StartChar: uni2468
Encoding: 9 9320 9
Width: 817
Flags: W
HStem: -234 68<301.269 514.654> 159 59<347.007 422.872> 317 67<359.29 434.96> 466 68<301.646 514.654>
VStem: 25 67<43.2302 256.393> 276 67<221.654 302.168> 474 67<3.69141 197> 725 67<43.407 256.593>
LayerCount: 2
Fore
SplineSet
448 -49 m 0
 448 -32 456 8 462 48 c 0
 468 88 474 127 474 144 c 0
 474 168 474 182 470 198 c 1
 433 170 405 159 374 159 c 0
 314 159 276 197 276 255 c 0
 276 326 331 384 400 384 c 0
 451 384 494 347 516 284 c 2
 526 253 l 2
 536 214 541 179 541 144 c 0
 541 141 541 138 541 135 c 0
 541 100 540 90 516 -55 c 0
 513 -71 499 -83 482 -83 c 0
 464 -83 448 -67 448 -49 c 0
343 255 m 0
 343 233 357 218 376 218 c 0
 402 218 428 235 452 269 c 1
 440 299 420 317 400 317 c 0
 368 317 343 290 343 255 c 0
25 150 m 0
 25 361 197 534 408 534 c 0
 619 534 792 361 792 150 c 0
 792 -61 619 -234 408 -234 c 0
 196 -234 25 -62 25 150 c 0
92 150 m 0
 92 -24 234 -166 408 -166 c 0
 582 -166 725 -24 725 150 c 0
 725 324 582 466 408 466 c 0
 235 466 92 323 92 150 c 0
EndSplineSet
Validated: 1
EndChar

StartChar: uni24B6
Encoding: 10 9398 10
Width: 817
Flags: W
HStem: -234 68<301.269 514.654> 70 67<392.481 448 450 460 461 462> 466 68<301.646 514.654>
VStem: 25 67<43.2302 256.393> 263 65<-79.4668 -38.1853> 725 67<43.407 256.593>
LayerCount: 2
Fore
SplineSet
462 138 m 1
 457 179 450 214 437 261 c 1
 421 228 409 194 392 135 c 1
 402 137 405 137 445 137 c 2
 460 137 l 2
 461 138 l 0
 462 138 l 1
263 -49 m 0
 263 -45 263 -45 264 -44 c 0
 265 -43 266 -42 266 -38 c 0
 287 20 302 69 316 116 c 0
 341 200 364 275 413 366 c 0
 421 378 431 384 443 384 c 0
 456 384 469 375 474 362 c 0
 511 259 522 204 552 -33 c 0
 553 -38 553 -45 554 -49 c 2
 554 -67 538 -83 520 -83 c 0
 503 -83 489 -70 487 -54 c 0
 484 -35 479 6 471 71 c 1
 450 71 l 2
 448 70 l 0
 447 70 l 2
 434 70 l 2
 397 69 384 68 370 64 c 1
 362 36 347 -8 328 -61 c 0
 323 -74 311 -83 297 -83 c 0
 279 -83 263 -67 263 -49 c 0
25 150 m 0
 25 361 197 534 408 534 c 0
 619 534 792 361 792 150 c 0
 792 -61 619 -234 408 -234 c 0
 196 -234 25 -62 25 150 c 0
92 150 m 0
 92 -24 234 -166 408 -166 c 0
 582 -166 725 -24 725 150 c 0
 725 324 582 466 408 466 c 0
 235 466 92 323 92 150 c 0
EndSplineSet
Validated: 1
EndChar

StartChar: uni24B7
Encoding: 11 9399 11
Width: 817
Flags: W
HStem: -234 68<301.269 514.654> -83 73<347 385.27> 316 68<383 391 392 467.302> 466 68<301.646 514.654>
VStem: 25 67<43.2302 256.393> 396 67<3.45239 46.572> 725 67<43.407 256.593>
LayerCount: 2
Fore
SplineSet
355 69 m 1
 355 67 355 67 347 -10 c 1
 355 -10 388 9 396 18 c 1
 396 20 l 2
 393 29 383 41 355 69 c 1
398 317 m 2
 392 317 l 2
 391 316 l 0
 390 316 l 2
 383 316 l 1
 383 310 372 213 370 201 c 1
 395 213 461 283 470 307 c 0
 469 308 469 308 468 308 c 0
 446 314 423 317 398 317 c 2
277 -41 m 0
 277 -38 288 56 298 151 c 0
 308 246 318 341 318 344 c 0
 321 372 345 384 398 384 c 0
 487 384 540 360 540 319 c 0
 540 268 501 219 394 134 c 0
 393 133 l 0
 393 132 393 132 392 132 c 0
 391 132 391 132 389 130 c 1
 414 105 414 105 447 61 c 0
 460 44 463 36 463 20 c 0
 463 -11 447 -33 409 -55 c 0
 384 -71 347 -83 324 -83 c 0
 296 -83 277 -66 277 -41 c 0
25 150 m 0
 25 361 197 534 408 534 c 0
 619 534 792 361 792 150 c 0
 792 -61 619 -234 408 -234 c 0
 196 -234 25 -62 25 150 c 0
92 150 m 0
 92 -24 234 -166 408 -166 c 0
 582 -166 725 -24 725 150 c 0
 725 324 582 466 408 466 c 0
 235 466 92 323 92 150 c 0
EndSplineSet
Validated: 1
EndChar

StartChar: uni24B8
Encoding: 12 9400 12
Width: 817
Flags: W
HStem: -234 68<301.269 514.654> -83 68<338.503 449.34> -53 72<445.368 530.508> 466 68<301.646 514.654>
VStem: 25 67<43.2302 256.393> 266 67<-9.39587 71.2915> 725 67<43.407 256.593>
LayerCount: 2
Fore
SplineSet
333 15 m 1024x9e
378 -15 m 0xde
 393 -15 418 -6 442 2 c 0
 466 10 489 19 504 19 c 0xbe
 522 19 538 3 538 -15 c 0xde
 538 -31 516 -53 500 -53 c 1xbe
 446 -75 413 -83 378 -83 c 0
 316 -83 266 -38 266 16 c 0
 266 85 378 262 494 375 c 0
 500 381 509 384 518 384 c 0
 536 384 552 369 552 351 c 0
 552 343 547 334 540 327 c 0
 447 237 333 65 333 16 c 1
 339 -6 352 -15 378 -15 c 0xde
25 150 m 0
 25 361 197 534 408 534 c 0
 619 534 792 361 792 150 c 0
 792 -61 619 -234 408 -234 c 0
 196 -234 25 -62 25 150 c 0
92 150 m 0
 92 -24 234 -166 408 -166 c 0
 582 -166 725 -24 725 150 c 0
 725 324 582 466 408 466 c 0
 235 466 92 323 92 150 c 0
EndSplineSet
Validated: 1
EndChar

StartChar: uni24B9
Encoding: 13 9401 13
Width: 817
Flags: W
HStem: -234 68<301.269 514.654> 317 67<372.958 444.254> 466 68<301.646 514.654>
VStem: 25 67<43.2302 256.393> 470 67<164.545 294.381> 725 67<43.407 256.593>
LayerCount: 2
Fore
SplineSet
348 12 m 1
 412 66 470 179 470 250 c 0
 470 291 438 314 376 317 c 1
 365 252 356 162 348 12 c 1
360 384 m 2
 475 384 537 336 537 250 c 0
 537 124 429 -44 324 -81 c 0
 322 -82 316 -83 312 -83 c 0
 294 -83 280 -68 280 -49 c 0
 280 58 298 272 314 357 c 0
 317 372 330 383 346 384 c 2
 360 384 l 2
25 150 m 0
 25 361 197 534 408 534 c 0
 619 534 792 361 792 150 c 0
 792 -61 619 -234 408 -234 c 0
 196 -234 25 -62 25 150 c 0
92 150 m 0
 92 -24 234 -166 408 -166 c 0
 582 -166 725 -24 725 150 c 0
 725 324 582 466 408 466 c 0
 235 466 92 323 92 150 c 0
EndSplineSet
Validated: 1
EndChar

StartChar: uni24BA
Encoding: 14 9402 14
Width: 817
Flags: W
HStem: -234 68<301.269 514.654> -83 86<338.747 501.238> -64 67<338.747 523.515> 85 68<348 517.515> 317 66<369.516 544.515> 466 68<301.646 514.654>
VStem: 25 67<43.2302 256.393> 269 67<-16 81.6871> 725 67<43.407 256.593>
LayerCount: 2
Fore
SplineSet
336 -16 m 1xdf80
 394 -13 491 3 493 3 c 0xdf80
 511 3 527 -13 527 -31 c 0
 527 -47 511 -64 496 -64 c 0xbf80
 468 -67 460 -68 442 -71 c 0
 388 -80 356 -83 320 -83 c 2
 302 -83 l 2
 284 -83 270 -68 270 -50 c 2
 270 -31 l 2
 270 -30 l 0
 269 -28 l 0
 269 65 282 201 305 344 c 1
 305 375 335 383 452 383 c 2
 494 383 l 1
 492 383 501 383 515 382 c 0
 534 381 548 367 548 349 c 0
 548 331 532 316 514 316 c 2
 513 316 l 2
 465 317 465 317 452 317 c 2
 416 317 l 2
 414 317 412 318 410 318 c 0
 408 318 407 318 405 318 c 0
 391 318 380 317 369 315 c 1
 357 234 351 192 348 153 c 1
 487 153 l 2
 505 153 521 137 521 119 c 0
 521 101 505 85 487 85 c 2
 341 85 l 1
 338 44 336 12 336 -16 c 1xdf80
25 150 m 0
 25 361 197 534 408 534 c 0
 619 534 792 361 792 150 c 0
 792 -61 619 -234 408 -234 c 0
 196 -234 25 -62 25 150 c 0
92 150 m 0
 92 -24 234 -166 408 -166 c 0
 582 -166 725 -24 725 150 c 0
 725 324 582 466 408 466 c 0
 235 466 92 323 92 150 c 0
EndSplineSet
Validated: 1
EndChar

StartChar: uni24BB
Encoding: 15 9403 15
Width: 817
Flags: W
HStem: -234 68<301.269 514.654> 124 68<352 516.204> 317 67<361.547 529.054> 466 68<301.646 514.654>
VStem: 25 67<43.2302 256.393> 284 67<-77.4506 124.895 190 309.984> 725 67<43.407 256.593>
LayerCount: 2
Fore
SplineSet
352 190 m 1
 356 190 l 2
 359 190 363 190 367 190 c 0
 371 190 375 191 378 191 c 0
 381 191 384 192 388 192 c 0
 392 192 395 192 398 192 c 2
 446 192 l 2
 447 192 449 192 450 192 c 0
 451 192 453 191 454 191 c 2
 486 191 l 2
 504 191 520 176 520 158 c 0
 520 140 506 125 488 124 c 2
 462 124 l 2
 433 124 425 124 412 125 c 2
 398 125 l 2
 364 125 360 125 351 123 c 1
 351 105 l 2
 351 37 353 -8 356 -45 c 2
 356 -49 l 2
 356 -67 340 -83 322 -83 c 0
 304 -83 289 -69 288 -51 c 0
 285 3 284 44 284 105 c 0
 284 194 288 268 296 343 c 0
 297 358 309 371 324 373 c 2
 326 373 l 1
 384 381 427 384 460 384 c 0
 516 384 532 376 532 349 c 0
 532 331 518 315 500 315 c 2
 494 315 l 2
 478 317 475 317 460 317 c 0
 426 317 393 315 360 310 c 1
 360 309 l 1
 356 275 356 275 352 192 c 1
 352 190 l 1
25 150 m 0
 25 361 197 534 408 534 c 0
 619 534 792 361 792 150 c 0
 792 -61 619 -234 408 -234 c 0
 196 -234 25 -62 25 150 c 0
92 150 m 0
 92 -24 234 -166 408 -166 c 0
 582 -166 725 -24 725 150 c 0
 725 324 582 466 408 466 c 0
 235 466 92 323 92 150 c 0
EndSplineSet
Validated: 1
EndChar

StartChar: uni24BC
Encoding: 16 9404 16
Width: 817
Flags: W
HStem: -234 68<301.269 514.654> -64 67<341 447.908> 52 86<396.371 448.831> 320 64<489.628 539.515> 466 68<301.646 514.654>
VStem: 25 67<43.2302 256.393> 274 67<3.64303 144.182> 448 67<-79.4815 -45 20 24 25 64.9848> 725 67<43.407 256.593>
LayerCount: 2
Fore
SplineSet
341 3 m 1
 356 3 366 5 382 9 c 0
 397 13 417 18 452 23 c 0
 452 24 l 0
 453 25 l 2
 453 41 l 2
 453 44 453 44 451 66 c 1
 404 52 404 52 403 52 c 0
 385 52 369 68 369 86 c 0
 369 101 380 114 395 118 c 0
 401 119 408 122 417 125 c 0
 432 131 451 138 469 138 c 0
 490 138 507 125 511 107 c 0
 517 83 520 61 520 41 c 0
 520 39 520 39 520 38 c 0
 520 36 520 36 518 -2 c 0
 517 -13 516 -26 515 -43 c 1
 515 -49 l 2
 515 -67 499 -83 481 -83 c 0
 461 -83 448 -69 448 -48 c 2
 448 -45 l 1
 446 -45 446 -46 445 -46 c 0
 444 -46 443 -45 432 -48 c 0
 427 -49 421 -51 412 -53 c 0
 370 -62 358 -64 340 -64 c 0
 291 -64 274 -43 274 17 c 0
 274 190 349 313 495 381 c 0
 499 383 504 384 509 384 c 0
 527 384 543 368 543 350 c 0
 543 337 535 325 523 320 c 0
 398 261 341 166 341 17 c 2
 341 3 l 1
25 150 m 0
 25 361 197 534 408 534 c 0
 619 534 792 361 792 150 c 0
 792 -61 619 -234 408 -234 c 0
 196 -234 25 -62 25 150 c 0
92 150 m 0
 92 -24 234 -166 408 -166 c 0
 582 -166 725 -24 725 150 c 0
 725 324 582 466 408 466 c 0
 235 466 92 323 92 150 c 0
EndSplineSet
Validated: 1
EndChar

StartChar: uni24BD
Encoding: 17 9405 17
Width: 817
Flags: W
HStem: -234 68<301.269 514.654> 87 68<355 454.568> 100 68<355.434 455> 466 68<301.646 514.654>
VStem: 25 67<43.2302 256.393> 284 67<-79.3479 69.4624> 288 65<-48.1492 89.2514 155 379.579> 447 67<-79.5146 93.2299> 463 70<172.278 379.443> 725 67<43.407 256.593>
LayerCount: 2
Fore
SplineSet
284 -49 m 0xdc40
 284 -32 286 59 288 151 c 0
 290 243 291 334 291 351 c 0
 291 369 306 384 324 384 c 0
 342 384 358 369 358 351 c 0
 358 313 357 228 355 155 c 1xda40
 363 157 453 168 457 168 c 0
 460 228 461 264 463 300 c 0
 464 317 465 333 466 352 c 0
 467 370 481 384 499 384 c 0
 517 384 533 368 533 350 c 2
 533 347 l 2xbac0
 531 324 514 -34 514 -51 c 0
 513 -69 499 -83 481 -83 c 0
 463 -83 447 -67 447 -49 c 2
 447 -44 l 2
 450 -1 452 35 455 100 c 1xb940
 454 100 417 95 387 91 c 0
 372 89 358 88 353 87 c 1
 353 75 l 2xdb40
 351 -45 351 -45 351 -50 c 0
 351 -68 336 -83 318 -83 c 0
 300 -83 284 -67 284 -49 c 0xdc40
25 150 m 0
 25 361 197 534 408 534 c 0
 619 534 792 361 792 150 c 0
 792 -61 619 -234 408 -234 c 0
 196 -234 25 -62 25 150 c 0
92 150 m 0
 92 -24 234 -166 408 -166 c 0
 582 -166 725 -24 725 150 c 0
 725 324 582 466 408 466 c 0
 235 466 92 323 92 150 c 0
EndSplineSet
Validated: 1
EndChar

StartChar: uni24BE
Encoding: 18 9406 18
Width: 817
Flags: W
HStem: -234 68<301.269 514.654> -92 69<281.046 310.533> -83 65<533.098 604.397> 317 67<272.285 357 425.371 563.707> 466 68<301.646 514.654>
VStem: 25 67<43.2302 256.393> 350 75<98.9854 310.044> 725 67<43.407 256.593>
LayerCount: 2
Fore
SplineSet
278 -21 m 1xdf
 281 -24 l 1
 282 -23 282 -23 283 -23 c 0
 294 -19 301 -14 311 -4 c 1
 298 -6 287 -12 278 -21 c 1xdf
574 -83 m 0xbf
 562 -83 529 -69 491 -53 c 0
 455 -38 414 -20 384 -12 c 1
 365 -55 317 -92 279 -92 c 0xdf
 243 -92 209 -56 209 -18 c 0
 209 25 266 64 329 64 c 2
 333 64 l 1
 347 152 348 186 350 222 c 0
 351 246 352 270 357 312 c 1
 354 312 348 311 339 310 c 0
 327 309 310 307 297 305 c 0
 289 304 278 303 272 302 c 2
 254 302 238 318 238 336 c 0
 238 353 251 367 267 369 c 0
 350 380 406 384 476 384 c 2
 503 384 l 2
 504 384 505 384 506 384 c 0
 507 384 509 383 510 383 c 2
 534 383 l 2
 552 383 567 368 567 350 c 0
 567 332 552 316 534 316 c 2
 533 316 l 2
 532 316 531 316 530 316 c 0
 529 316 527 317 526 317 c 2
 476 317 l 2
 436 317 433 317 425 316 c 1
 425 311 l 1
 416 188 407 99 399 54 c 1
 434 44 468 29 501 15 c 0
 528 3 556 -8 585 -18 c 0
 600 -24 608 -36 608 -49 c 0
 608 -67 592 -83 574 -83 c 0xbf
25 150 m 0
 25 361 197 534 408 534 c 0
 619 534 792 361 792 150 c 0
 792 -61 619 -234 408 -234 c 0
 196 -234 25 -62 25 150 c 0
92 150 m 0
 92 -24 234 -166 408 -166 c 0
 582 -166 725 -24 725 150 c 0
 725 324 582 466 408 466 c 0
 235 466 92 323 92 150 c 0
EndSplineSet
Validated: 1
EndChar

StartChar: uni24BF
Encoding: 19 9407 19
Width: 817
Flags: W
HStem: -234 68<301.269 514.654> -83 67<344.086 416.655> 466 68<301.646 514.654>
VStem: 25 67<43.2302 256.393> 455 66<64.1914 378.247> 725 67<43.407 256.593>
LayerCount: 2
Fore
SplineSet
324 7 m 0
 335 7 351 2 367 -4 c 0
 383 -10 399 -16 410 -16 c 1
 440 61 449 110 454 233 c 0
 454 234 454 235 454 236 c 0
 454 237 455 238 455 239 c 2
 455 258 l 2
 456 298 456 302 460 353 c 0
 461 370 475 384 493 384 c 0
 511 384 527 368 527 350 c 2
 527 349 l 2
 526 339 526 339 522 255 c 0
 522 254 522 253 522 252 c 0
 522 251 521 251 521 250 c 2
 521 235 l 1
 516 95 506 38 470 -45 c 0
 460 -69 439 -83 411 -83 c 0
 392 -83 359 -75 315 -59 c 0
 301 -55 290 -41 290 -26 c 0
 290 -8 306 7 324 7 c 0
25 150 m 0
 25 361 197 534 408 534 c 0
 619 534 792 361 792 150 c 0
 792 -61 619 -234 408 -234 c 0
 196 -234 25 -62 25 150 c 0
92 150 m 0
 92 -24 234 -166 408 -166 c 0
 582 -166 725 -24 725 150 c 0
 725 324 582 466 408 466 c 0
 235 466 92 323 92 150 c 0
EndSplineSet
Validated: 1
EndChar

StartChar: uni24C0
Encoding: 20 9408 20
Width: 817
Flags: W
HStem: -234 68<301.269 514.654> 466 68<301.646 514.654>
VStem: 25 67<43.2302 256.393> 258 68<-79.5146 71.5125> 280 67<207.379 380.876> 494 64<325.696 376.515> 725 67<43.407 256.593>
LayerCount: 2
Fore
SplineSet
558 346 m 0xee
 558 298 462 194 364 136 c 1
 378 122 398 106 422 87 c 0
 460 57 506 21 544 -22 c 0
 549 -28 552 -36 552 -44 c 0
 552 -62 538 -77 520 -77 c 0
 510 -77 500 -73 494 -66 c 0
 471 -40 349 65 332 74 c 1
 326 -51 l 2
 325 -69 310 -83 292 -83 c 0
 274 -83 258 -67 258 -49 c 0xf6
 259 -45 274 215 280 352 c 0
 281 370 296 384 314 384 c 0
 332 384 347 368 347 350 c 0
 347 350 347 350 347 349 c 0
 347 344 346 322 340 200 c 1
 416 245 465 297 494 360 c 0
 499 372 510 380 524 380 c 0
 542 380 558 364 558 346 c 0xee
25 150 m 0
 25 361 197 534 408 534 c 0
 619 534 792 361 792 150 c 0
 792 -61 619 -234 408 -234 c 0
 196 -234 25 -62 25 150 c 0
92 150 m 0
 92 -24 234 -166 408 -166 c 0
 582 -166 725 -24 725 150 c 0
 725 324 582 466 408 466 c 0
 235 466 92 323 92 150 c 0
EndSplineSet
Validated: 1
EndChar

StartChar: uni24C1
Encoding: 21 9409 21
Width: 817
Flags: W
HStem: -234 68<301.269 514.654> -83 67<363.59 520.579> 466 68<301.646 514.654>
VStem: 25 67<43.2302 256.393> 331 67<197.286 380.371> 725 67<43.407 256.593>
LayerCount: 2
Fore
SplineSet
398 350 m 0
 398 349 397 344 396 335 c 0
 390 288 371 140 361 -15 c 1
 367 -16 368 -16 400 -16 c 0
 403 -16 403 -16 479 -14 c 2
 492 -14 l 2
 510 -14 525 -29 525 -47 c 0
 525 -65 511 -80 493 -81 c 0
 421 -83 421 -83 400 -83 c 0
 321 -83 292 -71 292 -37 c 2
 292 -35 l 1
 299 92 309 187 331 355 c 0
 333 372 347 384 364 384 c 0
 382 384 398 368 398 350 c 0
25 150 m 0
 25 361 197 534 408 534 c 0
 619 534 792 361 792 150 c 0
 792 -61 619 -234 408 -234 c 0
 196 -234 25 -62 25 150 c 0
92 150 m 0
 92 -24 234 -166 408 -166 c 0
 582 -166 725 -24 725 150 c 0
 725 324 582 466 408 466 c 0
 235 466 92 323 92 150 c 0
EndSplineSet
Validated: 1
EndChar

StartChar: uni24C2
Encoding: 22 9410 22
Width: 817
Flags: W
HStem: -234 68<301.269 514.654> 466 68<301.646 514.654>
VStem: 25 67<43.2302 256.393> 202 64<-79.4877 -37.2776> 306 113<183.391 316.071> 538 67<-79.4661 146.805> 548 67<-66.8475 158.845> 725 67<43.407 256.593>
LayerCount: 2
Fore
SplineSet
206 -37 m 2xfb
 206 -36 l 1
 207 -36 206 -36 206 -35 c 0
 252 57 283 167 306 250 c 0
 322 309 336 354 348 370 c 0
 355 379 365 384 376 384 c 0
 409 384 416 366 419 270 c 0
 422 172 428 127 440 103 c 1
 472 123 491 210 507 279 c 0
 517 321 525 356 534 367 c 0
 542 378 551 384 564 384 c 0
 605 384 615 341 615 150 c 0xfb
 615 82 611 4 605 -53 c 0
 603 -70 589 -83 572 -83 c 0
 554 -83 538 -67 538 -49 c 2
 538 -45 l 1xfd
 544 12 548 79 548 150 c 2
 548 163 l 1
 518 75 482 34 436 34 c 0
 390 34 365 77 356 172 c 1
 326 73 297 -3 266 -65 c 0
 261 -76 249 -83 236 -83 c 0
 218 -83 202 -67 202 -49 c 0
 202 -44 203 -43 206 -37 c 2xfb
25 150 m 0
 25 361 197 534 408 534 c 0
 619 534 792 361 792 150 c 0
 792 -61 619 -234 408 -234 c 0
 196 -234 25 -62 25 150 c 0
92 150 m 0
 92 -24 234 -166 408 -166 c 0
 582 -166 725 -24 725 150 c 0
 725 324 582 466 408 466 c 0
 235 466 92 323 92 150 c 0
EndSplineSet
Validated: 1
EndChar

StartChar: uni24C3
Encoding: 23 9411 23
Width: 817
Flags: W
HStem: -234 68<301.269 514.654> 466 68<301.646 514.654>
VStem: 25 67<43.2302 256.393> 244 66<-79.442 70.2775> 508 66<137.879 380.707> 725 67<43.407 256.593>
LayerCount: 2
Fore
SplineSet
244 -47 m 2
 244 -43 l 1
 261 44 272 152 280 234 c 0
 286 294 289 340 294 354 c 0
 300 372 319 384 338 384 c 0
 382 384 401 341 448 144 c 0
 449 143 450 143 450 139 c 0
 469 61 473 42 480 21 c 1
 495 88 508 239 508 351 c 0
 508 369 522 384 540 384 c 0
 558 384 574 369 574 351 c 0
 574 260 565 143 554 63 c 0
 538 -42 518 -83 480 -83 c 0
 440 -83 425 -49 370 179 c 0
 359 223 355 240 348 263 c 1
 332 80 325 21 310 -56 c 0
 307 -71 294 -83 278 -83 c 0
 260 -83 244 -67 244 -49 c 0
 244 -48 243 -48 244 -47 c 2
25 150 m 0
 25 361 197 534 408 534 c 0
 619 534 792 361 792 150 c 0
 792 -61 619 -234 408 -234 c 0
 196 -234 25 -62 25 150 c 0
92 150 m 0
 92 -24 234 -166 408 -166 c 0
 582 -166 725 -24 725 150 c 0
 725 324 582 466 408 466 c 0
 235 466 92 323 92 150 c 0
EndSplineSet
Validated: 1
EndChar

StartChar: uni24C4
Encoding: 24 9412 24
Width: 817
Flags: W
HStem: -234 68<301.269 514.654> -83 68<298.86 448.423> 317 67<363.809 525.922> 466 68<301.646 514.654>
VStem: 25 67<43.2302 256.393> 197 67<15.5669 210.421> 553 67<136.425 292.615> 725 67<43.407 256.593>
LayerCount: 2
Fore
SplineSet
197 96 m 0
 197 277 292 383 454 384 c 2
 457 384 l 2
 560 384 620 328 620 232 c 0
 620 162 585 66 534 -7 c 0
 500 -55 442 -83 375 -83 c 0
 284 -83 209 -33 201 33 c 0
 201 35 200 38 200 40 c 0
 197 85 197 85 197 95 c 0
 197 96 l 0
455 317 m 2
 330 316 264 239 264 96 c 0
 264 85 264 81 268 40 c 0
 272 11 323 -15 376 -15 c 0
 420 -15 457 2 479 32 c 0
 525 99 553 175 553 232 c 0
 553 291 524 317 457 317 c 2
 455 317 l 2
25 150 m 0
 25 361 197 534 408 534 c 0
 619 534 792 361 792 150 c 0
 792 -61 619 -234 408 -234 c 0
 196 -234 25 -62 25 150 c 0
92 150 m 0
 92 -24 234 -166 408 -166 c 0
 582 -166 725 -24 725 150 c 0
 725 324 582 466 408 466 c 0
 235 466 92 323 92 150 c 0
EndSplineSet
Validated: 1
EndChar

StartChar: uni24C5
Encoding: 25 9413 25
Width: 817
Flags: W
HStem: -234 68<301.269 514.654> 137 67<366 447.09> 317 67<384.563 474.969> 466 68<301.646 514.654>
VStem: 25 67<43.2302 256.393> 478 67<237.148 309.926> 725 67<43.407 256.593>
LayerCount: 2
Fore
SplineSet
366 204 m 1
 388 204 l 2
 441 204 464 226 478 288 c 1
 478 291 l 2
 478 304 454 317 430 317 c 2
 428 317 l 2
 427 316 427 316 426 316 c 0
 409 313 396 309 384 304 c 1
 383 301 382 301 382 300 c 0
 381 299 382 299 376 262 c 0
 374 248 370 230 366 204 c 1
430 384 m 0
 494 384 545 343 545 291 c 0
 545 260 524 205 502 180 c 0
 474 151 436 137 388 137 c 0
 365 137 364 137 358 138 c 1
 352 92 344 22 338 -52 c 0
 337 -69 324 -83 306 -83 c 0
 288 -83 272 -67 272 -49 c 0
 272 3 313 305 324 337 c 0
 333 361 385 384 430 384 c 0
25 150 m 0
 25 361 197 534 408 534 c 0
 619 534 792 361 792 150 c 0
 792 -61 619 -234 408 -234 c 0
 196 -234 25 -62 25 150 c 0
92 150 m 0
 92 -24 234 -166 408 -166 c 0
 582 -166 725 -24 725 150 c 0
 725 324 582 466 408 466 c 0
 235 466 92 323 92 150 c 0
EndSplineSet
Validated: 1
EndChar

StartChar: uni24C6
Encoding: 26 9414 26
Width: 817
Flags: W
HStem: -234 68<301.269 514.654> -47 67<315.017 380.193> 317 67<421.85 462.019> 466 68<301.646 514.654>
VStem: 25 67<43.2302 256.393> 247 68<23.2737 39 39 145.639> 463 67<167.817 315.55> 725 67<43.407 256.593>
LayerCount: 2
Fore
SplineSet
391 149 m 0
 405 149 412 144 429 123 c 1
 449 178 463 242 463 283 c 0
 463 293 461 306 459 317 c 1
 397 315 325 177 314 39 c 1
 315 39 315 39 315 38 c 0
 323 26 333 20 344 20 c 0
 360 20 379 34 397 59 c 1
 362 98 358 104 358 115 c 0
 358 133 373 149 391 149 c 0
247 37 m 0
 247 202 359 384 460 384 c 0
 506 384 530 350 530 283 c 0
 530 220 510 138 478 67 c 1
 570 -37 570 -37 570 -50 c 0
 570 -68 555 -83 537 -83 c 0
 527 -83 518 -79 512 -72 c 0
 512 -72 511 -70 508 -67 c 0
 494 -51 449 -1 442 7 c 1
 413 -28 379 -47 344 -47 c 0
 295 -47 247 -5 247 37 c 0
25 150 m 0
 25 361 197 534 408 534 c 0
 619 534 792 361 792 150 c 0
 792 -61 619 -234 408 -234 c 0
 196 -234 25 -62 25 150 c 0
92 150 m 0
 92 -24 234 -166 408 -166 c 0
 582 -166 725 -24 725 150 c 0
 725 324 582 466 408 466 c 0
 235 466 92 323 92 150 c 0
EndSplineSet
Validated: 1
EndChar

StartChar: uni24C7
Encoding: 27 9415 27
Width: 817
Flags: W
HStem: -234 68<301.269 514.654> 317 67<358.426 456.907> 466 68<301.646 514.654>
VStem: 25 67<43.2302 256.393> 268 67<-77.6211 63 113 290.392> 486 67<201.535 290.502> 725 67<43.407 256.593>
LayerCount: 2
Fore
SplineSet
553 253 m 0
 553 186 506 129 410 79 c 1
 424 64 428 60 446 42 c 0
 502 -16 514 -32 514 -50 c 0
 514 -68 498 -83 480 -83 c 0
 468 -83 458 -77 452 -68 c 0
 426 -30 397 0 372 25 c 0
 358 39 345 51 335 63 c 1
 335 51 331 -43 330 -51 c 0
 329 -69 316 -83 298 -83 c 0
 280 -83 264 -67 264 -49 c 2
 264 -48 l 2
 267 -29 267 -1 268 70 c 2
 268 77 l 2
 269 193 275 245 296 340 c 0
 302 368 331 384 374 384 c 0
 476 384 553 328 553 253 c 0
336 113 m 1
 343 120 359 129 377 138 c 0
 423 162 486 195 486 253 c 0
 486 291 441 317 374 317 c 0
 362 317 363 317 360 316 c 0
 343 245 337 200 336 113 c 1
25 150 m 0
 25 361 197 534 408 534 c 0
 619 534 792 361 792 150 c 0
 792 -61 619 -234 408 -234 c 0
 196 -234 25 -62 25 150 c 0
92 150 m 0
 92 -24 234 -166 408 -166 c 0
 582 -166 725 -24 725 150 c 0
 725 324 582 466 408 466 c 0
 235 466 92 323 92 150 c 0
EndSplineSet
Validated: 1
EndChar

StartChar: uni24C8
Encoding: 28 9416 28
Width: 817
Flags: W
HStem: -234 68<301.269 514.654> -83 66<333.523 421.497> 311 73<469.328 564.312> 466 68<301.646 514.654>
VStem: 25 67<43.2302 256.393> 324 67<179.54 258.995> 446 67<8.64136 80.0198> 725 67<43.407 256.593>
LayerCount: 2
Fore
SplineSet
282 21 m 0
 300 21 317 12 334 2 c 0
 351 -8 367 -17 385 -17 c 0
 414 -17 432 5 446 58 c 0
 446 63 433 76 407 97 c 0
 346 146 324 180 324 225 c 0
 324 295 381 340 525 383 c 0
 527 384 527 384 535 384 c 0
 553 384 569 368 569 350 c 0
 569 328 564 324 521 311 c 0
 473 298 452 290 433 278 c 0
 408 262 393 246 391 232 c 2
 391 225 l 2
 391 190 422 166 452 142 c 0
 482 118 513 93 513 58 c 0
 513 -13 450 -83 385 -83 c 0
 349 -83 310 -70 264 -41 c 0
 254 -34 248 -24 248 -13 c 0
 248 5 264 21 282 21 c 0
25 150 m 0
 25 361 197 534 408 534 c 0
 619 534 792 361 792 150 c 0
 792 -61 619 -234 408 -234 c 0
 196 -234 25 -62 25 150 c 0
92 150 m 0
 92 -24 234 -166 408 -166 c 0
 582 -166 725 -24 725 150 c 0
 725 324 582 466 408 466 c 0
 235 466 92 323 92 150 c 0
EndSplineSet
Validated: 1
EndChar

StartChar: uni24C9
Encoding: 29 9417 29
Width: 817
Flags: W
HStem: -234 68<301.269 514.654> 317 67<431 576.451> 466 68<301.646 514.654>
VStem: 25 67<43.2302 256.393> 327 70<-79.9604 79.2163> 360 71<98.5446 314> 725 67<43.407 256.593>
LayerCount: 2
Fore
SplineSet
327 -56 m 0xfa
 327 -54 328 -52 329 -50 c 0
 330 -48 331 -46 331 -44 c 0
 346 54 355 156 360 290 c 1
 360 295 l 2
 360 301 361 302 362 304 c 0
 363 306 364 308 364 314 c 1
 274 304 274 304 268 304 c 0
 250 304 235 319 235 337 c 0
 235 354 247 368 264 370 c 0
 350 381 395 384 445 384 c 0
 492 384 523 383 551 380 c 0
 568 379 582 364 582 346 c 0
 582 328 566 313 548 313 c 2
 546 313 l 2
 519 316 489 317 445 317 c 2
 431 317 l 1xf6
 431 229 415 50 397 -55 c 0
 394 -71 381 -83 364 -83 c 0
 343 -83 327 -72 327 -56 c 0xfa
25 150 m 0
 25 361 197 534 408 534 c 0
 619 534 792 361 792 150 c 0
 792 -61 619 -234 408 -234 c 0
 196 -234 25 -62 25 150 c 0
92 150 m 0
 92 -24 234 -166 408 -166 c 0
 582 -166 725 -24 725 150 c 0
 725 324 582 466 408 466 c 0
 235 466 92 323 92 150 c 0
EndSplineSet
Validated: 1
EndChar

StartChar: uni24CA
Encoding: 30 9418 30
Width: 817
Flags: W
HStem: -234 68<301.269 514.654> -83 65<356.649 399.743> 466 68<301.646 514.654>
VStem: 25 67<43.2302 256.393> 276 67<-9.18835 328.902> 474 66<156.17 380.707> 725 67<43.407 256.593>
LayerCount: 2
Fore
SplineSet
360 350 m 0
 360 332 356 281 352 231 c 0
 348 181 343 131 343 113 c 0
 343 48 349 9 362 -10 c 0
 366 -15 370 -18 372 -18 c 0
 424 -18 471 154 474 351 c 0
 474 369 490 384 508 384 c 0
 526 384 540 369 540 351 c 0
 540 96 471 -83 372 -83 c 0
 307 -83 276 -20 276 113 c 0
 276 165 284 264 294 354 c 0
 296 371 309 384 326 384 c 0
 344 384 360 368 360 350 c 0
25 150 m 0
 25 361 197 534 408 534 c 0
 619 534 792 361 792 150 c 0
 792 -61 619 -234 408 -234 c 0
 196 -234 25 -62 25 150 c 0
92 150 m 0
 92 -24 234 -166 408 -166 c 0
 582 -166 725 -24 725 150 c 0
 725 324 582 466 408 466 c 0
 235 466 92 323 92 150 c 0
EndSplineSet
Validated: 1
EndChar

StartChar: uni24CB
Encoding: 31 9419 31
Width: 817
Flags: W
HStem: -234 68<301.269 514.654> 466 68<301.646 514.654>
VStem: 25 67<43.2302 256.393> 239 65<310.175 380.515> 512 66<340 380.467> 725 67<43.407 256.593>
LayerCount: 2
Fore
SplineSet
576 339 m 1
 560 297 526 185 519 161 c 0
 518 158 518 156 518 156 c 0
 448 -59 436 -83 401 -83 c 0
 368 -83 353 -49 290 180 c 0
 265 270 251 316 242 338 c 0
 240 342 239 346 239 350 c 0
 239 368 255 384 273 384 c 0
 287 384 299 375 304 363 c 0
 320 324 326 304 335 267 c 0
 346 225 362 163 405 31 c 1
 416 59 437 127 459 197 c 0
 479 260 499 324 512 362 c 0
 517 375 529 384 544 384 c 0
 562 384 578 368 578 350 c 0
 578 345 578 345 577 341 c 0
 577 340 577 340 576 340 c 1
 576 339 l 1
25 150 m 0
 25 361 197 534 408 534 c 0
 619 534 792 361 792 150 c 0
 792 -61 619 -234 408 -234 c 0
 196 -234 25 -62 25 150 c 0
92 150 m 0
 92 -24 234 -166 408 -166 c 0
 582 -166 725 -24 725 150 c 0
 725 324 582 466 408 466 c 0
 235 466 92 323 92 150 c 0
EndSplineSet
Validated: 1
EndChar

StartChar: uni24CC
Encoding: 32 9420 32
Width: 817
Flags: W
HStem: -234 68<301.269 514.654> 466 68<301.183 515.274>
VStem: 25 67<43.2302 256.144> 725 67<43.407 256.987>
LayerCount: 2
Fore
SplineSet
25 150 m 0
 25 361 197 534 408 534 c 0
 619 534 792 361 792 150 c 0
 792 -61 619 -234 408 -234 c 0
 196 -234 25 -62 25 150 c 0
92 150 m 0
 92 -24 234 -166 408 -166 c 0
 582 -166 725 -24 725 150 c 0
 725 207 710 263 680 312 c 1
 676 298 672 283 659 232 c 2
 655 216 l 2
 589 -35 567 -83 517 -83 c 0
 490 -83 472 -63 459 -20 c 1
 459 -19 l 1
 448 24 441 71 435 115 c 0
 429 157 424 196 416 223 c 1
 409 203 402 176 395 146 c 0
 382 95 368 35 348 -11 c 0
 328 -59 303 -83 273 -83 c 0
 226 -83 203 -22 149 248 c 0
 146 264 141 288 136 310 c 1
 107 261 92 206 92 150 c 0
186 374 m 1
 191 369 194 363 195 357 c 0
 237 148 260 50 279 0 c 1
 299 37 314 99 329 158 c 0
 344 219 359 277 376 299 c 0
 386 314 400 321 415 321 c 0
 461 321 479 279 503 113 c 0
 512 46 516 23 522 3 c 1
 548 54 577 179 599 268 c 0
 609 310 618 345 623 360 c 0
 624 365 627 370 631 374 c 1
 571 433 492 466 408 466 c 0
 325 466 246 433 186 374 c 1
EndSplineSet
Validated: 1
EndChar

StartChar: uni24CD
Encoding: 33 9421 33
Width: 817
Flags: W
HStem: -234 68<301.269 514.654> 466 68<301.646 514.654>
VStem: 25 67<43.2302 256.393> 278 65<318.94 380.515> 725 67<43.407 256.593>
LayerCount: 2
Fore
SplineSet
362 142 m 1
 280 337 278 343 278 350 c 0
 278 368 294 384 312 384 c 0
 326 384 338 376 343 364 c 0
 347 356 347 356 398 231 c 2
 408 206 l 1
 457 272 497 322 539 372 c 0
 546 380 555 384 564 384 c 0
 582 384 597 369 597 351 c 0
 597 341 595 334 590 329 c 0
 526 253 466 170 446 143 c 0
 442 137 439 134 439 134 c 0
 483 40 511 3 526 -18 c 0
 537 -32 541 -39 541 -50 c 0
 541 -68 526 -83 508 -83 c 0
 498 -83 488 -78 481 -69 c 0
 446 -21 421 19 394 73 c 1
 365 34 336 -2 278 -71 c 0
 271 -79 262 -83 253 -83 c 0
 235 -83 220 -68 220 -50 c 0
 220 -37 224 -32 243 -11 c 0
 263 12 298 53 362 142 c 1
25 150 m 0
 25 361 197 534 408 534 c 0
 619 534 792 361 792 150 c 0
 792 -61 619 -234 408 -234 c 0
 196 -234 25 -62 25 150 c 0
92 150 m 0
 92 -24 234 -166 408 -166 c 0
 582 -166 725 -24 725 150 c 0
 725 324 582 466 408 466 c 0
 235 466 92 323 92 150 c 0
EndSplineSet
Validated: 1
EndChar

StartChar: uni24CE
Encoding: 34 9422 34
Width: 817
Flags: W
HStem: -234 68<301.269 514.654> 466 68<301.646 514.654>
VStem: 25 67<43.2302 256.393> 277 65<309.12 380.515> 366 66<-79.7074 -34 -32 148.49> 725 67<43.407 256.593>
LayerCount: 2
Fore
SplineSet
297 291 m 0
 297 291 296 292 296 293 c 0
 293 303 277 348 277 350 c 0
 277 368 293 384 311 384 c 0
 325 384 337 375 342 363 c 0
 349 346 356 327 362 308 c 0
 375 271 387 234 401 211 c 1
 410 225 419 246 429 270 c 0
 443 303 459 341 479 370 c 0
 485 379 495 384 506 384 c 0
 524 384 540 369 540 351 c 0
 540 340 540 339 535 333 c 0
 521 317 508 287 495 255 c 0
 478 213 459 168 436 150 c 1
 438 139 438 136 438 98 c 0
 438 64 437 48 435 33 c 0
 433 18 432 2 432 -32 c 2
 432 -49 l 2
 432 -67 417 -83 399 -83 c 0
 381 -83 366 -68 366 -50 c 2
 366 -35 l 2
 366 -34 l 0
 365 -32 l 0
 365 -10 366 13 368 36 c 0
 370 59 371 81 371 103 c 0
 371 135 371 138 369 149 c 1
 343 166 323 206 298 290 c 0
 297 290 297 290 297 291 c 0
25 150 m 0
 25 361 197 534 408 534 c 0
 619 534 792 361 792 150 c 0
 792 -61 619 -234 408 -234 c 0
 196 -234 25 -62 25 150 c 0
92 150 m 0
 92 -24 234 -166 408 -166 c 0
 582 -166 725 -24 725 150 c 0
 725 324 582 466 408 466 c 0
 235 466 92 323 92 150 c 0
EndSplineSet
Validated: 1
EndChar

StartChar: uni24CF
Encoding: 35 9423 35
Width: 817
Flags: W
HStem: -234 68<301.269 514.654> -83 67<317.169 509.32> 310 67<269.534 424.644> 317 67<273.331 501.42> 466 68<301.646 514.654>
VStem: 25 67<43.2302 256.393> 725 67<43.407 256.593>
LayerCount: 2
Fore
SplineSet
244 -26 m 0xde
 244 25 303 78 364 135 c 0
 424 190 486 248 502 310 c 1xee
 480 314 453 317 426 317 c 0xde
 398 317 362 315 302 310 c 1
 300 310 l 2
 282 310 266 326 266 344 c 0
 266 361 279 375 296 377 c 0xee
 373 383 397 384 426 384 c 0
 528 384 572 365 572 322 c 0
 572 321 573 321 572 321 c 1
 572 316 l 1
 564 250 528 199 420 97 c 0
 373 55 324 2 316 -14 c 1
 335 -16 336 -16 346 -16 c 0
 403 -16 481 -6 522 7 c 0
 524 8 525 8 532 8 c 0
 550 8 564 -8 564 -26 c 0
 564 -41 554 -54 540 -58 c 0
 490 -73 411 -83 346 -83 c 0
 272 -83 244 -68 244 -26 c 0xde
25 150 m 0
 25 361 197 534 408 534 c 0
 619 534 792 361 792 150 c 0
 792 -61 619 -234 408 -234 c 0
 196 -234 25 -62 25 150 c 0
92 150 m 0
 92 -24 234 -166 408 -166 c 0
 582 -166 725 -24 725 150 c 0
 725 324 582 466 408 466 c 0
 235 466 92 323 92 150 c 0
EndSplineSet
Validated: 1
EndChar

StartChar: uni24D0
Encoding: 36 9424 36
Width: 817
Flags: W
HStem: -234 68<301.269 514.654> 0 67<341 380.624> 233 67<399.186 457.02> 466 68<301.646 514.654>
VStem: 25 67<43.2302 256.393> 274 67<67.3858 165.377> 454 67<136.498 232.23> 463 80<12.4458 67.3828> 725 67<43.407 256.593>
LayerCount: 2
Fore
SplineSet
342 67 m 0xfe80
 363 67 424 118 454 160 c 1
 454 196 455 217 458 233 c 1
 450 233 l 2
 391 233 341 163 341 81 c 0
 341 69 341 69 342 67 c 0xfe80
529 258 m 0
 529 241 527 222 525 204 c 0
 523 186 521 168 521 151 c 0xfe80
 521 113 526 102 532 92 c 0
 538 82 543 72 543 34 c 0
 543 16 527 0 509 0 c 0
 485 0 476 13 463 68 c 1xfd80
 419 25 374 0 341 0 c 0
 300 0 274 32 274 81 c 0
 274 132 297 203 325 239 c 0
 356 278 401 300 450 300 c 0
 501 300 529 285 529 258 c 0
25 150 m 0
 25 361 197 534 408 534 c 0
 619 534 792 361 792 150 c 0
 792 -61 619 -234 408 -234 c 0
 196 -234 25 -62 25 150 c 0
92 150 m 0
 92 -24 234 -166 408 -166 c 0
 582 -166 725 -24 725 150 c 0
 725 324 582 466 408 466 c 0
 235 466 92 323 92 150 c 0
EndSplineSet
Validated: 1
EndChar

StartChar: uni24D1
Encoding: 37 9425 37
Width: 817
Flags: W
HStem: -234 68<301.269 514.654> 150 67<403.228 459.807> 466 68<301.646 514.654>
VStem: 25 67<43.2302 256.393> 300 67<189.202 380.56> 461 67<58.8108 148.958> 725 67<43.407 256.593>
LayerCount: 2
Fore
SplineSet
323 -81 m 2
 303 -81 289 -66 289 -45 c 2
 289 -9 l 2
 289 74 294 249 300 352 c 0
 301 370 315 384 333 384 c 0
 351 384 367 369 367 351 c 2
 367 341 l 1
 360 194 360 194 360 188 c 1
 379 205 414 217 445 217 c 0
 497 217 528 181 528 122 c 0
 528 67 509 27 460 -22 c 0
 416 -69 392 -83 354 -83 c 2
 323 -81 l 2
461 122 m 0
 461 141 456 150 445 150 c 0
 397 150 363 86 357 -16 c 1
 371 -15 376 -11 411 25 c 2
 431 45 l 2
 449 64 461 95 461 122 c 0
25 150 m 0
 25 361 197 534 408 534 c 0
 619 534 792 361 792 150 c 0
 792 -61 619 -234 408 -234 c 0
 196 -234 25 -62 25 150 c 0
92 150 m 0
 92 -24 234 -166 408 -166 c 0
 582 -166 725 -24 725 150 c 0
 725 324 582 466 408 466 c 0
 235 466 92 323 92 150 c 0
EndSplineSet
Validated: 1
EndChar

StartChar: uni24D2
Encoding: 38 9426 38
Width: 817
Flags: W
HStem: -234 68<301.269 514.654> 0 67<366.416 515.617> 235 65<447.35 509.404> 466 68<301.646 514.654>
VStem: 25 67<43.2302 256.393> 298 66<68.6865 80 81 152.255> 725 67<43.407 256.593>
LayerCount: 2
Fore
SplineSet
298 68 m 2
 298 80 l 1
 297 81 l 1
 297 180 396 300 479 300 c 0
 497 300 513 284 513 266 c 0
 513 251 503 239 489 235 c 0
 411 210 364 153 364 81 c 2
 364 79 l 2
 364 70 379 67 424 67 c 2
 452 67 l 2
 467 67 468 67 469 68 c 0
 470 69 475 70 486 70 c 0
 504 70 520 55 520 37 c 0
 520 11 500 0 452 0 c 0
 353 0 300 23 298 68 c 2
25 150 m 0
 25 361 197 534 408 534 c 0
 619 534 792 361 792 150 c 0
 792 -61 619 -234 408 -234 c 0
 196 -234 25 -62 25 150 c 0
92 150 m 0
 92 -24 234 -166 408 -166 c 0
 582 -166 725 -24 725 150 c 0
 725 324 582 466 408 466 c 0
 235 466 92 323 92 150 c 0
EndSplineSet
Validated: 1
EndChar

StartChar: uni24D3
Encoding: 39 9427 39
Width: 817
Flags: W
HStem: -234 68<301.269 514.654> -83 67<345.649 420.964> 150 67<375.143 457.811> 466 68<301.646 514.654>
VStem: 25 67<43.2302 256.393> 278 67<-15.3546 114.728> 460 73<11.0731 130.952 203 347> 472 67<204.981 380.685> 725 67<43.407 256.593>
LayerCount: 2
Fore
SplineSet
362 -16 m 0xfe80
 368 -16 379 -12 390 -8 c 0
 401 -4 412 1 418 1 c 1
 451 13 460 23 460 50 c 2
 460 52 l 2
 458 80 458 92 458 121 c 0
 458 122 457 122 458 123 c 2
 458 124 l 2
 459 128 460 130 458 131 c 0
 432 144 414 150 402 150 c 0
 372 150 345 87 345 18 c 0
 345 -8 349 -16 362 -16 c 0xfe80
530 124 m 0
 530 114 532 76 533 38 c 0
 534 0 536 -39 536 -49 c 0
 536 -67 520 -83 502 -83 c 0
 484 -83 469 -68 468 -50 c 1
 436 -69 390 -83 362 -83 c 0
 310 -83 278 -45 278 18 c 0
 278 133 330 217 402 217 c 0
 418 217 435 213 460 203 c 1xfe80
 462 245 466 304 472 354 c 0
 474 371 489 384 506 384 c 0
 525 384 539 369 539 350 c 2
 539 344 l 1xfd80
 533 265 530 188 530 124 c 0
25 150 m 0
 25 361 197 534 408 534 c 0
 619 534 792 361 792 150 c 0
 792 -61 619 -234 408 -234 c 0
 196 -234 25 -62 25 150 c 0
92 150 m 0
 92 -24 234 -166 408 -166 c 0
 582 -166 725 -24 725 150 c 0
 725 324 582 466 408 466 c 0
 235 466 92 323 92 150 c 0
EndSplineSet
Validated: 1
EndChar

StartChar: uni24D4
Encoding: 40 9428 40
Width: 817
Flags: W
HStem: -234 68<301.269 514.654> 0 67<366.57 455.116> 280 20G<421 443> 466 68<301.646 514.654>
VStem: 25 67<43.2302 256.393> 428 69<167.775 230.628> 725 67<43.407 256.593>
LayerCount: 2
Fore
SplineSet
428 194 m 2
 430 202 430 202 430 204 c 0
 430 212 425 222 418 232 c 1
 391 222 378 200 364 144 c 1
 392 149 412 164 428 192 c 1
 428 194 l 2
394 67 m 0
 412 67 427 74 442 81 c 0
 457 88 474 95 492 95 c 0
 510 95 526 79 526 61 c 0
 526 48 519 37 508 31 c 0
 467 9 432 0 394 0 c 0
 333 0 292 43 292 107 c 0
 292 120 292 133 296 152 c 0
 317 241 348 281 406 298 c 0
 420 300 420 300 422 300 c 0
 464 300 497 258 497 204 c 0
 497 144 434 83 366 76 c 1
 370 69 376 67 394 67 c 0
25 150 m 0
 25 361 197 534 408 534 c 0
 619 534 792 361 792 150 c 0
 792 -61 619 -234 408 -234 c 0
 196 -234 25 -62 25 150 c 0
92 150 m 0
 92 -24 234 -166 408 -166 c 0
 582 -166 725 -24 725 150 c 0
 725 324 582 466 408 466 c 0
 235 466 92 323 92 150 c 0
EndSplineSet
Validated: 1
EndChar

StartChar: uni24D5
Encoding: 41 9429 41
Width: 817
Flags: W
HStem: -234 68<301.269 514.654> 141 67<261.208 338> 144 73<413 553.51> 317 67<440.128 494.006> 466 68<301.646 514.654>
VStem: 25 67<43.2302 256.393> 334 67<-78.0398 140.123> 344 69<211 282.766> 725 67<43.407 256.593>
LayerCount: 2
Fore
SplineSet
508 289 m 0xdd80
 501 289 495 296 490 303 c 0
 485 310 479 317 472 317 c 0
 443 317 424 282 413 211 c 1
 462 213 498 215 524 217 c 2
 526 217 l 2
 544 217 560 201 560 183 c 0
 560 165 546 151 528 150 c 0
 493 147 428 144 404 144 c 1xbd80
 404 136 403 92 401 47 c 0
 399 2 398 -43 398 -51 c 0
 397 -69 382 -83 364 -83 c 0
 346 -83 330 -67 330 -49 c 0
 331 -44 333 -23 334 15 c 2
 334 37 l 2
 334 38 334 40 334 41 c 0
 334 42 334 44 334 45 c 0
 336 122 337 122 338 141 c 1
 335 140 331 140 320 140 c 0
 315 140 310 140 303 139 c 0
 299 139 295 138 290 138 c 0
 272 138 256 153 256 171 c 0
 256 189 271 204 288 205 c 0
 293 205 299 206 303 206 c 0
 312 207 320 207 326 207 c 0
 329 207 331 208 334 208 c 0xde80
 337 208 341 208 344 208 c 1
 356 299 384 354 428 373 c 0
 446 381 458 384 472 384 c 0
 505 384 540 352 540 323 c 0
 540 305 526 289 508 289 c 0xdd80
25 150 m 0
 25 361 197 534 408 534 c 0
 619 534 792 361 792 150 c 0
 792 -61 619 -234 408 -234 c 0
 196 -234 25 -62 25 150 c 0
92 150 m 0
 92 -24 234 -166 408 -166 c 0
 582 -166 725 -24 725 150 c 0
 725 324 582 466 408 466 c 0
 235 466 92 323 92 150 c 0
EndSplineSet
Validated: 1
EndChar

StartChar: uni24D6
Encoding: 42 9430 42
Width: 817
Flags: W
HStem: -234 68<301.269 514.654> -116 67<347.89 398.891> 117 66<394.845 447.955> 466 68<301.646 514.654>
VStem: 25 67<43.2302 256.393> 725 67<43.407 256.593>
LayerCount: 2
Fore
SplineSet
292 4 m 0
 304 4 321 -9 338 -22 c 0
 355 -35 372 -49 384 -49 c 2
 396 -49 427 31 448 117 c 1
 444 117 l 2
 383 117 326 150 326 186 c 0
 326 297 420 417 508 417 c 0
 532 417 560 395 560 375 c 0
 560 262 489 -20 446 -80 c 0
 431 -102 409 -116 384 -116 c 0
 354 -116 327 -102 270 -56 c 0
 262 -50 258 -40 258 -29 c 0
 258 -11 274 4 292 4 c 0
394 197 m 1
 412 188 432 183 444 183 c 0
 448 183 447 183 448 184 c 2
 450 184 l 1
 468 200 476 232 490 344 c 1
 441 322 398 257 394 197 c 1
25 150 m 0
 25 361 197 534 408 534 c 0
 619 534 792 361 792 150 c 0
 792 -61 619 -234 408 -234 c 0
 196 -234 25 -62 25 150 c 0
92 150 m 0
 92 -24 234 -166 408 -166 c 0
 582 -166 725 -24 725 150 c 0
 725 324 582 466 408 466 c 0
 235 466 92 323 92 150 c 0
EndSplineSet
Validated: 1
EndChar

StartChar: uni24D7
Encoding: 43 9431 43
Width: 817
Flags: W
HStem: -234 68<301.269 514.654> 148 69<408.521 475.268> 466 68<301.646 514.654>
VStem: 25 67<43.2302 256.393> 266 66<-79.7074 -4.56838> 312 68<196 379.717> 476 66<-79.6852 75.2908> 484 66<-61.569 146.122> 725 67<43.407 256.593>
LayerCount: 2
Fore
SplineSet
476 -49 m 0xf280
 476 -35 478 -11 480 13 c 0
 482 37 484 62 484 76 c 0
 484 108 478 130 464 148 c 1
 462 148 l 2
 458 150 458 150 454 150 c 0
 438 149 419 143 408 135 c 1
 394 115 378 81 364 41 c 0
 356 8 345 -26 332 -62 c 0
 327 -74 314 -83 300 -83 c 0
 281 -83 266 -68 266 -50 c 0xf980
 266 -44 272 -27 279 -7 c 0
 287 15 295 41 300 62 c 0
 309 111 312 149 312 227 c 0
 312 230 312 232 312 234 c 0
 312 236 312 238 312 240 c 0
 312 261 312 266 315 333 c 0
 315 339 316 346 316 353 c 0
 317 371 330 384 348 384 c 0
 366 384 382 368 382 350 c 2
 382 349 l 2
 380 329 380 305 380 226 c 2
 380 196 l 1
 405 210 430 217 454 217 c 0
 514 217 550 165 550 76 c 0xf580
 550 62 544 -25 542 -47 c 2
 542 -51 l 2
 541 -69 526 -83 508 -83 c 0
 491 -83 476 -68 476 -49 c 0xf280
25 150 m 0
 25 361 197 534 408 534 c 0
 619 534 792 361 792 150 c 0
 792 -61 619 -234 408 -234 c 0
 196 -234 25 -62 25 150 c 0
92 150 m 0
 92 -24 234 -166 408 -166 c 0
 582 -166 725 -24 725 150 c 0
 725 324 582 466 408 466 c 0
 235 466 92 323 92 150 c 0
EndSplineSet
Validated: 1
EndChar

StartChar: uni24D8
Encoding: 44 9432 44
Width: 817
Flags: W
HStem: -234 68<301.269 514.654> 317 67<389.293 448.707> 466 68<301.646 514.654>
VStem: 25 67<43.2302 256.393> 386 66<320.124 381.05> 725 67<43.407 256.593>
LayerCount: 2
Fore
SplineSet
386 351 m 0
 386 369 401 384 419 384 c 0
 437 384 452 369 452 351 c 0
 452 333 437 317 419 317 c 0
 401 317 386 333 386 351 c 0
412 217 m 0
 430 217 446 201 446 183 c 0
 439 82 436 22 432 -51 c 0
 431 -69 417 -83 399 -83 c 0
 381 -83 365 -67 365 -49 c 0
 372 52 375 112 379 185 c 0
 380 203 394 217 412 217 c 0
25 150 m 0
 25 361 197 534 408 534 c 0
 619 534 792 361 792 150 c 0
 792 -61 619 -234 408 -234 c 0
 196 -234 25 -62 25 150 c 0
92 150 m 0
 92 -24 234 -166 408 -166 c 0
 582 -166 725 -24 725 150 c 0
 725 324 582 466 408 466 c 0
 235 466 92 323 92 150 c 0
EndSplineSet
Validated: 1
EndChar

StartChar: uni24D9
Encoding: 45 9433 45
Width: 817
Flags: W
HStem: -234 68<301.269 514.654> -128 67<349.605 417.037> 326 67<449.485 510.515> 466 68<301.646 514.654>
VStem: 25 67<43.2302 256.393> 436 63<-43.0858 225> 446 68<15.6652 225 225 257.327 329.485 389.707> 725 67<43.407 256.593>
LayerCount: 2
Fore
SplineSet
446 360 m 0xfb
 446 378 462 393 480 393 c 0
 498 393 514 378 514 360 c 0
 514 342 498 326 480 326 c 0
 462 326 446 342 446 360 c 0xfb
331 -38 m 0
 343 -38 356 -44 370 -50 c 0
 384 -56 398 -61 410 -61 c 2
 411 -61 l 1
 431 -3 436 24 436 77 c 2
 436 91 l 2
 436 136 438 175 445 233 c 0
 447 249 461 262 478 262 c 0
 496 262 512 246 512 228 c 2
 512 225 l 1
 511 225 511 225 511 224 c 0
 504 170 501 133 499 76 c 0xfd
 497 6 491 -25 469 -94 c 0
 462 -116 441 -128 410 -128 c 0
 385 -128 354 -119 316 -101 c 0
 305 -96 297 -84 297 -71 c 0
 297 -53 313 -38 331 -38 c 0
25 150 m 0
 25 361 197 534 408 534 c 0
 619 534 792 361 792 150 c 0
 792 -61 619 -234 408 -234 c 0
 196 -234 25 -62 25 150 c 0
92 150 m 0
 92 -24 234 -166 408 -166 c 0
 582 -166 725 -24 725 150 c 0
 725 324 582 466 408 466 c 0
 235 466 92 323 92 150 c 0
EndSplineSet
Validated: 1
EndChar

StartChar: uni24DA
Encoding: 46 9434 46
Width: 817
Flags: W
HStem: -234 68<301.269 514.654> 466 68<301.646 514.654>
VStem: 25 67<43.2302 256.393> 290 67<145 371.934> 298 67<-79.1358 9.04427> 302 67<159.961 380.876> 725 67<43.407 256.593>
LayerCount: 2
Fore
SplineSet
494 -83 m 0xf2
 482 -83 482 -83 470 -72 c 0
 449 -53 414 -25 362 11 c 1
 362 2 363 -23 364 -36 c 0
 364 -43 364 -46 365 -49 c 0
 365 -67 348 -83 330 -83 c 0
 312 -83 299 -69 298 -51 c 0xea
 294 51 290 140 290 156 c 0xf2
 290 241 293 294 302 355 c 0
 304 372 319 384 336 384 c 0
 354 384 369 368 369 350 c 2
 369 346 l 1xe6
 361 292 357 226 357 156 c 2
 357 145 l 1
 459 207 477 217 488 217 c 0
 506 217 520 202 520 184 c 0
 520 161 503 146 430 108 c 0
 428 108 l 0
 428 107 l 0
 389 86 388 86 380 80 c 1
 517 -18 526 -26 526 -50 c 0
 526 -68 512 -83 494 -83 c 0xf2
25 150 m 0
 25 361 197 534 408 534 c 0
 619 534 792 361 792 150 c 0
 792 -61 619 -234 408 -234 c 0
 196 -234 25 -62 25 150 c 0
92 150 m 0
 92 -24 234 -166 408 -166 c 0
 582 -166 725 -24 725 150 c 0
 725 324 582 466 408 466 c 0
 235 466 92 323 92 150 c 0
EndSplineSet
Validated: 1
EndChar

StartChar: uni24DB
Encoding: 47 9435 47
Width: 817
Flags: W
HStem: -234 68<301.269 514.654> 466 68<301.646 514.654>
VStem: 25 67<43.2302 256.393> 369 67<-79.5146 169.688> 376 72<-70.4959 378.247> 725 67<43.407 256.593>
LayerCount: 2
Fore
SplineSet
414 384 m 0xec
 432 384 448 368 448 350 c 2
 448 348 l 2xec
 445 313 443 247 442 151 c 0
 442 44 441 5 436 -52 c 0
 435 -69 421 -83 403 -83 c 0
 385 -83 369 -67 369 -49 c 2
 369 -47 l 1xf4
 373 -14 375 44 376 151 c 2
 376 197 l 2
 376 274 377 311 381 353 c 0
 382 370 396 384 414 384 c 0xec
25 150 m 0
 25 361 197 534 408 534 c 0
 619 534 792 361 792 150 c 0
 792 -61 619 -234 408 -234 c 0
 196 -234 25 -62 25 150 c 0
92 150 m 0
 92 -24 234 -166 408 -166 c 0
 582 -166 725 -24 725 150 c 0
 725 324 582 466 408 466 c 0
 235 466 92 323 92 150 c 0
EndSplineSet
Validated: 1
EndChar

StartChar: uni24DC
Encoding: 48 9436 48
Width: 817
Flags: W
HStem: -234 68<301.269 514.654> 0 21G<212.5 236.5 582 600> 221 67<309.443 375.861 497.163 555.419> 280 20G<249 265> 466 68<301.646 514.654>
VStem: 25 67<43.2302 256.393> 188 74<47 48 105 106> 373 67<53.3148 141.002> 557 67<3.48541 33 34 218.987> 725 67<43.407 256.593>
LayerCount: 2
Fore
SplineSet
190 48 m 0xefc0
 190 49 190 49 196 105 c 0
 196 106 l 0
 197 108 l 2
 197 124 l 1
 202 201 208 236 225 279 c 0
 230 292 242 300 256 300 c 0xdfc0
 274 300 288 287 289 269 c 1
 315 280 342 287 362 287 c 0
 397 287 416 274 435 235 c 1
 462 270 494 288 529 288 c 0
 595 288 629 241 629 149 c 0
 629 129 627 112 626 96 c 0
 625 80 624 63 624 43 c 2
 624 34 l 1
 625 34 l 1
 625 16 609 0 591 0 c 0
 573 0 558 15 558 33 c 1
 557 34 l 1
 557 43 l 2
 557 63 559 79 560 96 c 0
 561 113 562 129 562 149 c 0
 562 202 553 221 529 221 c 0
 497 221 455 153 440 77 c 0
 437 62 423 50 407 50 c 0
 388 50 373 65 373 84 c 0
 373 101 375 111 378 122 c 0
 381 133 384 143 384 160 c 0
 384 184 378 204 366 219 c 1
 365 219 l 2
 364 219 364 219 363 220 c 2
 362 220 l 2
 307 220 267 171 262 97 c 0
 259 20 251 0 222 0 c 0
 203 0 188 15 188 33 c 2
 188 36 l 2
 189 43 190 46 190 47 c 0
 190 48 l 0xefc0
25 150 m 0
 25 361 197 534 408 534 c 0
 619 534 792 361 792 150 c 0
 792 -61 619 -234 408 -234 c 0
 196 -234 25 -62 25 150 c 0
92 150 m 0
 92 -24 234 -166 408 -166 c 0
 582 -166 725 -24 725 150 c 0
 725 324 582 466 408 466 c 0
 235 466 92 323 92 150 c 0
EndSplineSet
Validated: 1
EndChar

StartChar: uni24DD
Encoding: 49 9437 49
Width: 817
Flags: W
HStem: -234 68<301.269 514.654> 0 21G<301.5 328 492.5 511> 212 67<392.952 465.66> 280 20G<347 363> 466 68<301.646 514.654>
VStem: 25 67<43.2302 256.393> 278 69<3.19957 158.067> 472 67<5.0066 210.498> 725 67<43.407 256.593>
LayerCount: 2
Fore
SplineSet
539 122 m 0
 539 110 539 93 538 77 c 0
 537 61 536 44 536 32 c 0
 535 14 520 0 502 0 c 0
 483 0 470 14 470 33 c 2
 470 36 l 2
 472 70 472 99 472 122 c 0
 472 172 468 202 458 212 c 1
 452 212 l 2
 434 212 397 198 382 185 c 1
 352 145 349 99 347 64 c 0
 345 27 344 0 312 0 c 0
 291 0 278 15 278 38 c 0
 278 107 297 212 322 279 c 0
 327 291 340 300 354 300 c 0
 372 300 388 284 388 266 c 1
 386 265 l 1
 386 264 l 1
 411 274 433 279 452 279 c 0
 513 279 539 232 539 122 c 0
25 150 m 0
 25 361 197 534 408 534 c 0
 619 534 792 361 792 150 c 0
 792 -61 619 -234 408 -234 c 0
 196 -234 25 -62 25 150 c 0
92 150 m 0
 92 -24 234 -166 408 -166 c 0
 582 -166 725 -24 725 150 c 0
 725 324 582 466 408 466 c 0
 235 466 92 323 92 150 c 0
EndSplineSet
Validated: 1
EndChar

StartChar: uni24DE
Encoding: 50 9438 50
Width: 817
Flags: W
HStem: -234 68<301.269 514.654> 0 67<360.263 423.479> 280 20G<413 481.5> 466 68<301.646 514.654>
VStem: 25 67<43.2302 256.393> 291 70<69.1934 171.407> 459 67<116.066 231.46> 725 67<43.407 256.593>
LayerCount: 2
Fore
SplineSet
457 232 m 1
 405 226 358 158 358 90 c 0
 358 89 l 0
 358 87 358 87 360 75 c 0
 360 74 361 72 361 70 c 2
 361 69 l 2
 362 68 368 67 374 67 c 0
 390 67 411 75 423 86 c 0
 439 101 459 169 459 209 c 0
 459 215 458 223 457 232 c 1
374 0 m 0
 320 0 291 31 291 90 c 0
 291 198 368 294 458 300 c 1
 462 300 l 2
 501 300 526 265 526 209 c 0
 526 181 519 144 507 104 c 0
 489 53 469 29 430 12 c 0
 412 4 393 0 374 0 c 0
25 150 m 0
 25 361 197 534 408 534 c 0
 619 534 792 361 792 150 c 0
 792 -61 619 -234 408 -234 c 0
 196 -234 25 -62 25 150 c 0
92 150 m 0
 92 -24 234 -166 408 -166 c 0
 582 -166 725 -24 725 150 c 0
 725 324 582 466 408 466 c 0
 235 466 92 323 92 150 c 0
EndSplineSet
Validated: 1
EndChar

StartChar: uni24DF
Encoding: 51 9439 51
Width: 817
Flags: W
HStem: -234 68<301.269 514.654> 117 67<373.653 435.788> 350 67<364.989 467.065> 466 68<301.646 514.654>
VStem: 25 67<43.2302 256.393> 279 67<-112.466 130.469> 288 67<-106.865 131 201.584 340.047> 471 67<226.266 346.099> 725 67<43.407 256.593>
LayerCount: 2
Fore
SplineSet
431 417 m 0xfb80
 506 417 538 380 538 293 c 0
 538 200 476 117 406 117 c 0
 392 117 375 122 355 131 c 1
 355 97 l 2xfb80
 355 29 352 -32 346 -86 c 0
 344 -103 330 -116 313 -116 c 0
 295 -116 279 -100 279 -82 c 2
 279 -79 l 1xfd80
 285 -35 288 26 288 97 c 2
 288 155 l 2
 288 197 289 226 291 270 c 2
 291 275 l 2
 291 313 299 371 306 384 c 0
 310 392 316 397 325 400 c 0
 358 412 391 417 431 417 c 0xfb80
471 293 m 2
 471 342 466 350 431 350 c 0
 401 350 384 348 365 342 c 1
 360 300 358 280 358 268 c 0
 360 213 377 184 407 184 c 0
 432 184 470 242 471 282 c 2
 471 293 l 2
25 150 m 0
 25 361 197 534 408 534 c 0
 619 534 792 361 792 150 c 0
 792 -61 619 -234 408 -234 c 0
 196 -234 25 -62 25 150 c 0
92 150 m 0
 92 -24 234 -166 408 -166 c 0
 582 -166 725 -24 725 150 c 0
 725 324 582 466 408 466 c 0
 235 466 92 323 92 150 c 0
EndSplineSet
Validated: 1
EndChar

StartChar: uni24E0
Encoding: 52 9440 52
Width: 817
Flags: W
HStem: -234 68<301.269 514.654> 117 67<363.359 407.228> 466 68<301.646 514.654>
VStem: 25 67<43.2302 256.393> 296 67<185.066 283.582> 434 68<-112.707 133.429> 725 67<43.407 256.593>
LayerCount: 2
Fore
SplineSet
363 203 m 0
 363 188 368 184 386 184 c 0
 408 184 438 260 452 350 c 1
 427 347 394 319 386 293 c 0
 378 273 363 213 363 203 c 0
522 373 m 0
 522 297 517 232 512 167 c 0
 507 102 502 37 502 -39 c 0
 502 -42 502 -45 502 -48 c 0
 502 -55 502 -65 502 -83 c 0
 502 -101 486 -116 468 -116 c 0
 450 -116 434 -101 434 -83 c 2
 434 -39 l 2
 434 12 436 61 438 135 c 1
 425 124 405 117 386 117 c 0
 330 117 296 149 296 203 c 0
 296 229 298 241 322 313 c 0
 339 369 400 417 454 417 c 0
 472 417 506 404 514 394 c 0
 518 390 522 381 522 373 c 0
25 150 m 0
 25 361 197 534 408 534 c 0
 619 534 792 361 792 150 c 0
 792 -61 619 -234 408 -234 c 0
 196 -234 25 -62 25 150 c 0
92 150 m 0
 92 -24 234 -166 408 -166 c 0
 582 -166 725 -24 725 150 c 0
 725 324 582 466 408 466 c 0
 235 466 92 323 92 150 c 0
EndSplineSet
Validated: 1
EndChar

StartChar: uni24E1
Encoding: 53 9441 53
Width: 817
Flags: W
HStem: -234 68<301.269 514.654> 0 21G<319.5 343.5> 280 20G<334 352 475.5 494> 466 68<301.646 514.654>
VStem: 25 67<43.2302 256.393> 298 70<3.31485 140.471> 310 66<228.28 296.876> 725 67<43.407 256.593>
LayerCount: 2
Fore
SplineSet
375 228 m 1xfb
 420 270 466 300 485 300 c 0
 503 300 519 284 519 266 c 0
 519 253 511 241 498 236 c 0
 477 227 437 196 403 162 c 0
 401 161 390 151 380 141 c 0
 372 130 367 100 367 65 c 0
 367 40 367 39 368 35 c 2
 368 34 l 2
 368 15 353 0 334 0 c 0
 305 0 298 17 298 85 c 0xfd
 298 114 300 129 302 151 c 0
 304 175 307 206 310 268 c 0
 311 286 325 300 343 300 c 0
 361 300 376 284 376 266 c 0
 376 238 376 234 375 228 c 1xfb
25 150 m 0
 25 361 197 534 408 534 c 0
 619 534 792 361 792 150 c 0
 792 -61 619 -234 408 -234 c 0
 196 -234 25 -62 25 150 c 0
92 150 m 0
 92 -24 234 -166 408 -166 c 0
 582 -166 725 -24 725 150 c 0
 725 324 582 466 408 466 c 0
 235 466 92 323 92 150 c 0
EndSplineSet
Validated: 1
EndChar

StartChar: uni24E2
Encoding: 54 9442 54
Width: 817
Flags: W
HStem: -234 68<301.269 514.654> 0 64<309.735 424.675> 233 67<407.704 505.381> 466 68<301.646 514.654>
VStem: 25 67<43.2302 256.393> 340 67<190.139 231.115> 437 67<79.1539 125.434> 725 67<43.407 256.593>
LayerCount: 2
Fore
SplineSet
495 222 m 0
 483 222 476 225 469 228 c 0
 462 231 455 233 443 233 c 0
 419 233 407 226 407 212 c 0
 407 197 419 193 434 187 c 0
 442 184 451 181 460 175 c 0
 484 159 504 126 504 103 c 0
 504 45 449 0 378 0 c 0
 353 0 331 3 312 10 c 0
 298 14 288 27 288 42 c 0
 288 60 304 75 322 75 c 0
 335 75 339 73 344 70 c 0
 349 67 354 64 367 64 c 0
 400 64 437 85 437 103 c 0
 437 117 429 120 416 126 c 0
 408 129 399 134 388 141 c 0
 362 159 340 192 340 212 c 0
 340 264 382 300 443 300 c 0
 494 300 529 282 529 256 c 0
 529 238 513 222 495 222 c 0
25 150 m 0
 25 361 197 534 408 534 c 0
 619 534 792 361 792 150 c 0
 792 -61 619 -234 408 -234 c 0
 196 -234 25 -62 25 150 c 0
92 150 m 0
 92 -24 234 -166 408 -166 c 0
 582 -166 725 -24 725 150 c 0
 725 324 582 466 408 466 c 0
 235 466 92 323 92 150 c 0
EndSplineSet
Validated: 1
EndChar

StartChar: uni24E3
Encoding: 55 9443 55
Width: 817
Flags: W
HStem: -234 68<301.269 514.654> 141 67<281.271 367.952> 147 67<440 536.515> 466 68<301.646 514.654>
VStem: 25 67<43.2302 256.393> 359 68<-10.1178 146.935> 374 67<217 380.515> 449 71<-9.98294 61.579> 725 67<43.407 256.593>
LayerCount: 2
Fore
SplineSet
310 208 m 0xdd80
 320 211 339 212 353 213 c 0
 360 214 366 214 370 215 c 2
 372 215 l 1
 374 237 376 269 376 304 c 0
 376 325 376 332 374 346 c 2
 374 350 l 2
 374 368 390 384 408 384 c 0
 426 384 440 370 441 353 c 2
 441 347 l 2xdb80
 442 326 442 316 442 310 c 0
 442 305 442 304 442 304 c 0
 442 270 442 239 440 217 c 1
 454 217 464 217 474 216 c 0
 484 215 494 214 508 214 c 0
 526 213 540 199 540 181 c 0
 540 163 524 147 506 147 c 2
 504 147 l 2
 486 147 478 147 470 148 c 0
 462 149 452 150 434 150 c 1
 428 84 427 58 427 20 c 0
 427 12 427 8 427 3 c 0
 427 -2 427 -6 428 -12 c 1
 439 -1 445 14 449 28 c 0
 456 48 461 66 486 66 c 0
 504 66 520 51 520 33 c 0
 520 -20 464 -83 416 -83 c 0
 377 -83 360 -50 360 20 c 0
 360 21 359 21 359 22 c 0
 359 44 360 44 367 139 c 0
 367 142 368 145 368 148 c 1
 367 148 364 147 360 147 c 0xbd80
 350 146 333 144 326 143 c 0
 325 143 325 142 324 142 c 0
 323 142 321 142 320 142 c 2
 320 141 l 1
 312 141 l 1
 312 140 313 140 312 140 c 0
 294 140 278 156 278 174 c 0
 278 191 290 204 306 207 c 0
 307 207 307 208 308 208 c 0
 309 208 309 208 310 208 c 0xdd80
25 150 m 0
 25 361 197 534 408 534 c 0
 619 534 792 361 792 150 c 0
 792 -61 619 -234 408 -234 c 0
 196 -234 25 -62 25 150 c 0
92 150 m 0
 92 -24 234 -166 408 -166 c 0
 582 -166 725 -24 725 150 c 0
 725 324 582 466 408 466 c 0
 235 466 92 323 92 150 c 0
EndSplineSet
Validated: 1
EndChar

StartChar: uni24E4
Encoding: 56 9444 56
Width: 817
Flags: W
HStem: -234 68<301.269 514.654> 0 67<340.207 386.712> 280 20G<298 318.5 501.5 519> 466 68<301.646 514.654>
VStem: 25 67<43.2302 256.393> 270 67<67.4636 294.95> 470 75<181 207.441> 478 67<3.48541 83 182.328 296.348> 725 67<43.407 256.593>
LayerCount: 2
Fore
SplineSet
270 133 m 2xfd80
 270 141 271 163 272 184 c 0
 273 205 274 226 274 234 c 0
 274 255 274 256 275 261 c 2
 275 268 l 2
 275 286 289 300 307 300 c 0
 330 300 341 279 341 234 c 0
 341 233 340 209 339 184 c 0
 338 159 337 134 337 133 c 0
 337 80 341 67 357 67 c 1
 383 77 431 126 469 181 c 0
 470 181 470 181 470 182 c 0xfe80
 476 189 478 196 478 208 c 0xfd80
 478 249 478 254 477 265 c 2
 477 267 l 2
 477 285 492 300 511 300 c 0
 527 300 541 288 544 272 c 2
 544 271 l 2
 546 262 547 250 547 236 c 0
 547 225 546 206 545 203 c 2xfe80
 545 34 l 2
 545 16 529 0 511 0 c 0
 493 0 477 16 477 34 c 2
 477 54 l 2
 477 55 478 57 478 58 c 0
 478 59 478 60 478 61 c 2
 478 83 l 1
 424 24 389 0 357 0 c 0
 320 0 290 22 277 58 c 0
 272 73 270 90 270 118 c 2
 270 133 l 2xfd80
25 150 m 0
 25 361 197 534 408 534 c 0
 619 534 792 361 792 150 c 0
 792 -61 619 -234 408 -234 c 0
 196 -234 25 -62 25 150 c 0
92 150 m 0
 92 -24 234 -166 408 -166 c 0
 582 -166 725 -24 725 150 c 0
 725 324 582 466 408 466 c 0
 235 466 92 323 92 150 c 0
EndSplineSet
Validated: 1
EndChar

StartChar: uni24E5
Encoding: 57 9445 57
Width: 817
Flags: W
HStem: -234 68<301.269 514.654> 0 21G<387.5 410.5> 280 20G<301 317 500.5 516> 466 68<301.646 514.654>
VStem: 25 67<43.2302 256.393> 276 65<226.133 296.515> 725 67<43.407 256.593>
LayerCount: 2
Fore
SplineSet
276 266 m 0
 276 284 292 300 310 300 c 0
 324 300 336 291 341 279 c 0
 347 263 396 128 405 100 c 1
 405 104 459 241 477 281 c 0
 482 292 494 300 507 300 c 0
 525 300 541 284 541 266 c 0
 541 260 540 256 537 252 c 0
 521 221 506 178 491 137 c 0
 473 86 455 38 439 18 c 0
 429 6 417 0 404 0 c 0
 371 0 358 22 316 148 c 0
 302 191 296 207 279 254 c 0
 277 258 276 262 276 266 c 0
25 150 m 0
 25 361 197 534 408 534 c 0
 619 534 792 361 792 150 c 0
 792 -61 619 -234 408 -234 c 0
 196 -234 25 -62 25 150 c 0
92 150 m 0
 92 -24 234 -166 408 -166 c 0
 582 -166 725 -24 725 150 c 0
 725 324 582 466 408 466 c 0
 235 466 92 323 92 150 c 0
EndSplineSet
Validated: 1
EndChar

StartChar: uni24E6
Encoding: 58 9446 58
Width: 817
Flags: W
HStem: -234 68<301.269 514.654> 0 21G<262.5 303.5 483.5 523.5> 280 20G<201 224 600 617> 466 68<301.646 514.654>
VStem: 25 67<43.2302 256.393> 574 67<181.293 296.876> 725 67<43.407 256.593>
LayerCount: 2
Fore
SplineSet
432 160 m 1
 410 148 390 117 371 85 c 0
 346 43 321 0 286 0 c 0
 239 0 216 43 194 173 c 1
 194 176 l 1
 190 204 184 238 178 257 c 0
 178 258 177 259 176 260 c 2
 175 263 176 263 176 266 c 0
 176 284 192 300 210 300 c 0
 238 300 243 288 260 182 c 0
 272 110 275 92 284 76 c 1
 294 92 303 105 310 116 c 0
 312 120 316 123 318 127 c 0
 361 197 397 229 436 229 c 0
 479 229 498 198 504 115 c 0
 507 86 508 78 510 68 c 1
 519 72 529 88 538 114 c 0
 543 127 543 127 574 274 c 0
 577 289 592 300 608 300 c 0
 626 300 641 284 641 266 c 0
 641 240 603 89 590 66 c 0
 569 22 541 0 506 0 c 0
 461 0 444 28 438 114 c 0
 437 121 436 127 436 132 c 0
 434 155 433 155 432 158 c 0
 432 159 432 159 432 160 c 1
25 150 m 0
 25 361 197 534 408 534 c 0
 619 534 792 361 792 150 c 0
 792 -61 619 -234 408 -234 c 0
 196 -234 25 -62 25 150 c 0
92 150 m 0
 92 -24 234 -166 408 -166 c 0
 582 -166 725 -24 725 150 c 0
 725 324 582 466 408 466 c 0
 235 466 92 323 92 150 c 0
EndSplineSet
Validated: 1
EndChar

StartChar: uni24E7
Encoding: 59 9447 59
Width: 817
Flags: W
HStem: -234 68<301.269 514.654> 0 21G<307 325.5 487 501> 280 20G<313 331 490.5 509> 466 68<301.646 514.654>
VStem: 25 67<43.2302 256.393> 725 67<43.407 256.593>
LayerCount: 2
Fore
SplineSet
290 55 m 0
 295 60 323 98 358 146 c 1
 301 231 288 255 288 266 c 0
 288 284 304 300 322 300 c 0
 340 300 344 296 370 253 c 0
 377 241 382 233 387 226 c 0
 389 224 390 221 392 219 c 2
 400 204 l 1
 454 274 481 300 500 300 c 0
 518 300 534 285 534 267 c 0
 534 256 531 248 524 242 c 0
 501 222 460 176 440 146 c 1
 462 117 484 91 516 56 c 0
 521 50 524 42 524 33 c 0
 524 15 510 0 492 0 c 0
 482 0 472 4 466 11 c 0
 438 43 425 58 400 89 c 1
 342 8 335 0 316 0 c 0
 298 0 284 15 284 33 c 0
 284 43 285 50 290 55 c 0
25 150 m 0
 25 361 197 534 408 534 c 0
 619 534 792 361 792 150 c 0
 792 -61 619 -234 408 -234 c 0
 196 -234 25 -62 25 150 c 0
92 150 m 0
 92 -24 234 -166 408 -166 c 0
 582 -166 725 -24 725 150 c 0
 725 324 582 466 408 466 c 0
 235 466 92 323 92 150 c 0
EndSplineSet
Validated: 1
EndChar

StartChar: uni24E8
Encoding: 60 9448 60
Width: 817
Flags: W
HStem: -234 68<301.269 514.654> -116 67<333.297 413.91> 117 67<384.171 445.497> 466 68<301.646 514.654>
VStem: 25 67<43.2302 256.393> 300 67<201.419 347.25> 308 67<250.75 413.612> 492 66<315.075 413.322> 725 67<43.407 256.593>
LayerCount: 2
Fore
SplineSet
292 -11 m 0xfd80
 305 -11 320 -20 334 -30 c 0
 348 -40 363 -49 376 -49 c 0
 384 -49 396 -44 410 -34 c 0
 422 -26 436 34 446 121 c 1
 441 118 433 117 420 117 c 0
 354 117 300 177 300 250 c 0xfd80
 300 266 302 282 304 299 c 0
 306 316 308 332 308 348 c 2
 308 387 l 2
 308 403 324 417 344 417 c 0
 367 417 375 401 375 348 c 0xfb80
 375 332 372 316 370 299 c 0
 368 282 367 266 367 250 c 0
 367 215 392 184 420 184 c 0
 435 184 451 206 460 237 c 1
 470 309 481 362 492 392 c 0
 492 393 493 393 494 394 c 1
 494 404 512 417 526 417 c 0
 544 417 558 402 558 383 c 0
 558 372 554 352 548 332 c 0
 543 314 537 296 536 284 c 0
 533 264 531 245 526 223 c 2
 522 187 l 2
 500 -13 486 -62 448 -89 c 0
 421 -108 399 -116 376 -116 c 0
 347 -116 325 -106 274 -73 c 0
 264 -66 258 -56 258 -45 c 0
 258 -27 274 -11 292 -11 c 0xfd80
25 150 m 0
 25 361 197 534 408 534 c 0
 619 534 792 361 792 150 c 0
 792 -61 619 -234 408 -234 c 0
 196 -234 25 -62 25 150 c 0
92 150 m 0
 92 -24 234 -166 408 -166 c 0
 582 -166 725 -24 725 150 c 0
 725 324 582 466 408 466 c 0
 235 466 92 323 92 150 c 0
EndSplineSet
Validated: 1
EndChar

StartChar: uni24E9
Encoding: 61 9449 61
Width: 817
Flags: W
HStem: -234 68<301.269 514.654> 2 69<362 554.406> 230 70<321.459 438> 466 68<301.646 514.654>
VStem: 25 67<43.2302 256.393> 725 67<43.407 256.593>
LayerCount: 2
Fore
SplineSet
434 230 m 2
 423 230 346 217 300 208 c 1
 294 208 l 1
 294 207 295 207 294 207 c 0
 276 207 260 223 260 241 c 0
 260 256 272 271 288 274 c 0
 383 293 430 300 472 300 c 0
 503 300 520 286 520 262 c 0
 520 224 484 174 412 113 c 0
 382 88 373 79 362 67 c 1
 364 67 l 2
 385 67 407 68 428 69 c 0
 449 70 469 71 490 71 c 0
 540 71 558 62 558 36 c 0
 558 18 542 2 524 2 c 2
 514 2 l 2
 513 2 511 2 510 2 c 0
 509 2 507 3 506 3 c 0
 505 3 503 4 502 4 c 0
 501 4 499 4 498 4 c 2
 490 4 l 2
 488 4 459 3 428 2 c 0
 397 1 366 0 364 0 c 0
 303 0 280 14 280 49 c 0
 280 78 293 93 370 162 c 0
 421 208 430 217 438 230 c 1
 434 230 l 2
25 150 m 0
 25 361 197 534 408 534 c 0
 619 534 792 361 792 150 c 0
 792 -61 619 -234 408 -234 c 0
 196 -234 25 -62 25 150 c 0
92 150 m 0
 92 -24 234 -166 408 -166 c 0
 582 -166 725 -24 725 150 c 0
 725 324 582 466 408 466 c 0
 235 466 92 323 92 150 c 0
EndSplineSet
Validated: 1
EndChar
